<?xml version="1.0" encoding="UTF-8" standalone="no"?>
<svg
   width="349.999mm"
   height="349.477mm"
   viewBox="1065.000244 -226.738281 349.999390 349.476563"
   version="1.1"
   id="svg4"
   sodipodi:docname="C1.06-MCS.svg"
   inkscape:version="1.4 (86a8ad7, 2024-10-11)"
   inkscape:export-filename="C1.06-MCS.jpg"
   inkscape:export-xdpi="96"
   inkscape:export-ydpi="96"
   xmlns:inkscape="http://www.inkscape.org/namespaces/inkscape"
   xmlns:sodipodi="http://sodipodi.sourceforge.net/DTD/sodipodi-0.dtd"
   xmlns="http://www.w3.org/2000/svg"
   xmlns:svg="http://www.w3.org/2000/svg">
  <defs
     id="defs4" />
  <sodipodi:namedview
     id="namedview4"
     pagecolor="#ffffff"
     bordercolor="#000000"
     borderopacity="0.25"
     inkscape:showpageshadow="2"
     inkscape:pageopacity="0.0"
     inkscape:pagecheckerboard="0"
     inkscape:deskcolor="#d1d1d1"
     inkscape:document-units="mm"
     inkscape:zoom="0.41866729"
     inkscape:cx="661.62322"
     inkscape:cy="660.42895"
     inkscape:window-width="1366"
     inkscape:window-height="705"
     inkscape:window-x="-8"
     inkscape:window-y="-8"
     inkscape:window-maximized="1"
     inkscape:current-layer="svg4" />
  <path
     transform="matrix(1,0,0,-1,399.27002,1171.491577)"
     style="stroke:#0000ff;stroke-width:0.05mm;fill:none"
     d="M665.754639,1048.782837L665.754639,1048.782837C665.75,1048.84668,677.333984,1048.71167,691.476318,1048.766846L717.189819,1048.86731L717.223938,1052.833374M665.754639,1048.782837C665.75,1048.84668,665.74292,1060.449097,665.738464,1074.565796L665.730347,1100.232666L669.293579,1100.263184C672.651245,1100.292114,672.95752,1100.207764,674.604004,1098.801025C676.554626,1097.134277,677.649658,1094.973145,677.272583,1093.534058C676.855225,1091.940796,678.759644,1090.185303,680.930725,1090.161865C683.501099,1090.134277,684.642944,1090.595703,685.239929,1091.903687C685.858704,1093.259277,685.935181,1129.972168,685.32251,1131.531616C684.867493,1132.689819,683.482422,1133.243408,681.10199,1133.21875C678.060669,1133.187134,677.167358,1132.293457,677.390137,1129.504883C677.506042,1128.054932,676.644592,1126.588867,674.573975,1124.712158C672.845764,1123.145752,672.645203,1123.085449,669.266113,1123.114746L665.754272,1123.145508L665.754272,1223.54834L665.754272,1323.951172L669.266113,1323.981812C672.645203,1324.011108,672.845825,1323.950806,674.573975,1322.384399C676.644653,1320.50769,677.506042,1319.041626,677.390137,1317.591675C677.167358,1314.803223,678.060669,1313.909424,681.10199,1313.877808C683.482483,1313.853149,684.867493,1314.40686,685.322266,1315.564941C685.837646,1316.877441,685.837646,1353.937622,685.322266,1355.250122C684.858032,1356.432495,683.477356,1356.962036,680.930725,1356.934692C678.759644,1356.911255,676.855225,1355.155762,677.272583,1353.562622C677.649597,1352.123535,676.554626,1349.962402,674.604004,1348.295654C672.95752,1346.888794,672.651306,1346.804565,669.293579,1346.833374L665.730347,1346.864014L665.730347,1372.546997L665.730347,1398.229858L691.460083,1398.229858L717.189697,1398.229858L717.220459,1394.673218C717.24939,1391.321533,717.164917,1391.015869,715.755493,1389.372437C714.085754,1387.425293,711.920654,1386.332275,710.479004,1386.708618C708.882874,1387.125244,707.124146,1385.224365,707.100769,1383.057129C707.073303,1380.515137,707.603882,1379.136963,708.788391,1378.673584C710.103333,1378.15918,747.230835,1378.15918,748.545776,1378.673584C749.706055,1379.127563,750.260681,1380.51001,750.235962,1382.88623C750.204346,1385.919189,749.308838,1386.812988,746.522949,1386.592285C745.059631,1386.476318,743.085205,1387.647949,741.511475,1389.566162C740.273682,1391.074829,740.136841,1391.563477,740.109192,1394.769653L740.043823,1398.22876L937.697693,1398.102783L941.176697,1398.160645L941.345459,1394.756592C941.376221,1391.182373,941.333313,1391.037231,939.745972,1389.345581C937.845947,1387.320435,936.376099,1386.477295,934.944458,1386.591309C932.15094,1386.813721,931.255615,1385.921997,931.223877,1382.88623C931.199219,1380.51001,931.753906,1379.127563,932.914063,1378.67334C934.477112,1378.061523,971.375854,1378.137329,972.552002,1378.754761C973.984863,1379.507202,974.211792,1380.038574,974.219727,1382.660522C974.228149,1385.477295,973.119141,1386.825073,970.930054,1386.658569C969.121582,1386.521118,967.168457,1387.566528,965.532043,1389.548096C964.326294,1391.008179,964.211426,1391.464844,964.239502,1394.690186L964.270264,1398.229858L990,1398.229858L1015.729614,1398.229858L1015.729614,1372.535034L1015.729614,1346.840088L1012.335083,1346.821533C1008.983398,1346.79248,1008.299927,1346.884644,1006.656372,1348.294067C1004.709229,1349.963867,1003.616211,1352.128906,1003.992676,1353.570557C1004.409302,1355.166748,1002.508301,1356.925415,1000.341125,1356.948853C997.775391,1356.976807,996.635742,1356.51416,996.039795,1355.203979C995.422119,1353.845947,995.345703,1317.066162,995.957397,1315.503784C996.411499,1314.343628,997.794067,1313.78894,1000.170227,1313.813599C1003.206116,1313.845337,1004.097717,1314.740723,1003.875183,1317.53418C1003.759521,1318.986816,1004.619507,1320.455566,1006.686279,1322.335693C1008.411926,1323.905273,1008.759521,1324.011353,1012.137207,1323.981812L1015.704712,1323.951172L1015.704712,1223.54834L1015.704712,1123.145508L1011.63501,1123.145874C1008.283325,1123.116943,1007.977783,1123.201416,1006.334229,1124.61084C1004.387085,1126.280518,1003.294128,1128.445557,1003.670471,1129.887207C1004.087219,1131.483398,1002.186218,1133.242188,1000.018921,1133.265625C997.453247,1133.293457,996.313599,1132.830811,995.717651,1131.520752C995.099976,1130.162598,995.02356,1093.382813,995.635254,1091.820557C996.089355,1090.6604,997.471924,1090.105713,999.848022,1090.130371C1002.883911,1090.162109,1003.775513,1091.057373,1003.553101,1093.85083C1003.437378,1095.303589,1004.297424,1096.772217,1006.364075,1098.652344C1008.089722,1100.221924,1008.78772,1100.292847,1012.165405,1100.263306L1015.728577,1100.232666L1015.728577,1074.549683L1015.728577,1048.866699L989.998962,1048.866699L964.269165,1048.866699L964.238464,1052.423462C964.209534,1055.775146,964.293945,1056.080688,965.703369,1057.724243C967.373169,1059.671387,969.538147,1060.764404,970.979858,1060.387939C972.57605,1059.971313,974.334717,1061.872314,974.358154,1064.039551C974.386108,1066.605225,973.923462,1067.744873,972.613281,1068.34082C971.255188,1068.958496,934.475464,1069.034912,932.913086,1068.423218C931.75293,1067.969116,931.198242,1066.586548,931.2229,1064.210449C931.254639,1061.174561,932.149963,1060.282959,934.943481,1060.505371C936.396179,1060.621094,937.864868,1059.761108,939.744995,1057.694336C941.314575,1055.96875,941.374756,1055.769531,941.345215,1052.391846L941.314453,1048.882202L840.729919,1048.882202L740.144348,1048.882202L740.113708,1052.391846C740.084778,1055.74353,740.201965,1056.181152,741.611389,1057.824707C743.281189,1059.771851,745.446167,1060.864868,746.887878,1060.488403C748.48407,1060.071777,750.242737,1061.972778,750.266174,1064.140015C750.294128,1066.705688,749.831482,1067.845337,748.521301,1068.441284C747.163208,1069.05896,710.383484,1069.135376,708.821106,1068.523682C707.66095,1068.06958,707.106262,1066.687012,707.13092,1064.310913C707.162659,1061.275024,708.057983,1060.383423,710.851501,1060.605835C712.304199,1060.721558,713.772888,1059.861572,715.653015,1057.7948C717.222595,1056.069214,717.253479,1056.21106,717.223938,1052.833374"
     id="path1" />
  <path
     style="fill:#000000;fill-rule:evenodd;stroke:none"
     d="m 1415.1519,-54.068158 -0.032,-1.592 c -0.013,-1.595 -0.099,-3.1887 -0.256,-4.776 l -0.032,-0.208 -0.024,-0.2 -0.032,-0.176 c -0.028,-0.2213 -0.093,-0.4362 -0.1999,-0.632 l -0.032,-0.024 c -0.3283,-0.075 -0.6633,-0.1173 -1,-0.1281 -2.0271,-0.1285 -4.0568,-0.2057 -6.0878,-0.2319 -9.8659,-0.186 -19.7255,-0.2739 -29.5921,-0.264 -12.1827,-0.044 -24.3469,0.036 -36.528,0.2401 -2.2228,0.031 -4.4447,0.1113 -6.664,0.24 l -0.224,0.024 -0.192,0.016 c -0.2093,0.012 -0.4167,0.047 -0.616,0.1119 l -0.152,0.1441 -0.152,0.112 c -0.1108,0.043 -0.2266,0.07 -0.344,0.088 l -0.192,-0.016 c -0.3001,-0.074 -0.5884,-0.1896 -0.856,-0.344 l -0.16,-0.056 c -1.0065,-0.274 -2.034,-0.4643 -3.072,-0.568 -0.9217,-0.098 -1.8443,-0.1864 -2.768,-0.264 l -1.184,-0.1439 c -3.0298,-0.4556 -6.0105,-1.1925 -8.904,-2.2001 -3.4051,-1.1912 -6.727,-2.6075 -9.944,-4.24 -4.9393,-2.517 -9.7191,-5.3356 -14.312,-8.4401 -4.6263,-3.111 -9.1413,-6.3855 -13.536,-9.8159 l -0.592,-0.448 c -1.2378,-0.9548 -2.5195,-1.8514 -3.84,-2.688 l -0.136,-0.08 -0.12,-0.072 -0.104,-0.056 -0.176,-0.088 -0.064,-0.024 -0.048,-0.016 h -0.04 c -0.026,0.021 -0.055,0.034 -0.08,0.056 h -0.08 l -0.112,-0.032 -0.128,-0.064 c -0.5698,-0.3619 -1.0367,-0.8636 -1.36,-1.4561 -0.026,-0.081 -0.046,-0.1633 -0.056,-0.248004 0,-0.015 -0.01,-0.027 -0.016,-0.04 -0.052,-0.065 -0.106,-0.1285 -0.16,-0.1919 l -0.128,-0.136 c -1.3351,-1.268391 -2.7231,-2.480185 -4.16,-3.631979 l -1.288,-1.087894 c -6.756,-5.756385 -13.4831,-11.534185 -20.192,-17.343985 l -2.448,-2.0961 c -5.7543,-4.9523 -11.5857,-9.818 -17.488,-14.592 l -0.872,-0.696 -0.856,-0.6879 c -4.1473,-3.3199 -8.4003,-6.5055 -12.752,-9.552 -5.3768,-3.7364 -11.0153,-7.081 -16.872,-10.0081 -3.0468,-1.5211 -6.1957,-2.8281 -9.424,-3.912 -2.8191,-0.9486 -5.7193,-1.6368 -8.664,-2.056 -3.0453,-0.4174 -6.1312,-0.4473 -9.184,-0.088 -3.375,0.4239 -6.6643,1.3648 -9.752,2.7921 -0.8326,0.4018 -1.6214,0.8891 -2.352,1.4559 -0.2473,0.2248 -0.4922,0.4514 -0.736,0.6801 l -0.208,0.1679 c -0.1539,0.1231 -0.3233,0.2253 -0.504,0.304 -0.037,0.011 -0.074,0.017 -0.112,0.024 -0.04,-0.014 -0.077,-0.033 -0.112,-0.056 l -0.064,-0.01 -0.088,0.016 -0.104,0.032 -0.12,0.048 -0.144,0.072 c -0.7621,0.4629 -1.4868,0.9847 -2.168,1.5601 -4.2379,3.5261 -7.9832,7.6054 -11.136,12.1279 -3.1337,4.4625 -5.8771,9.1868 -8.2,14.1201 -2.5153,5.301 -4.6228,10.7864 -6.304,16.408 -0.568,1.8505 -1.1141,3.705 -1.64,5.568 -0.1148,0.3936 -0.2035,0.7944 -0.264,1.2 -0.017,0.079 0,0.1604 0.032,0.232 l 0.024,0.024 h 0.072 l 0.096,-0.04 c 0.1449,-0.089 0.287,-0.1757 0.432,-0.2641 0.03,0 0.057,-0.01 0.088,-0.01 l 0.016,0.016 c 2e-4,0.02 -0.01,0.037 -0.01,0.056 l -0.024,0.04 -0.024,0.056 c -0.1568,0.2599 -0.3281,0.5106 -0.512,0.7521 l -0.056,0.088 -0.072,0.144 -0.016,0.064 -0.01,0.048 0.01,0.048 0.016,0.032 0.024,0.032 0.04,0.024 c 0.1328,0.019 0.266,0.033 0.4,0.04 l 0.08,0.032 0.04,0.048 v 0.072 l -0.048,0.088 -0.088,0.1119 -0.128,0.1281 -0.176,0.1518 -0.096,0.088 -0.096,0.1198 -0.096,0.152097 -0.096,0.1761 -0.096,0.1999 c -0.4233,1.109491 -0.7311,2.259485 -0.92,3.431979 -0.2493,1.431991 -0.4171,2.877085 -0.504,4.327986 -0.4774,6.912 -0.6003,13.8434 -0.368,20.7681 0.062,1.426 0.2089,2.8473 0.44,4.2558 1.1084,7.7426 2.9266,15.3667 5.432,22.7762 2.5007,7.4102 5.5244,14.6338 9.048,21.6159 3.4228,6.7976 7.1791,13.4214009 11.256,19.8479039 2.7163,4.3444999 5.5335,8.6262999 8.448,12.8401001 l 0.456,0.6399 0.432,0.616099 c 0.9295,1.350499 1.9226,2.655898 2.976,3.911998 0.162,0.1868 0.3309,0.3674 0.504,0.5439 l 0.272,0.311999 c 0.1513,0.1775 0.2993,0.3581 0.44,0.5441 0.051,0.077 0.1021,0.1541 0.152,0.2321 l 0.064,0.096 c 0.041,0.084 0.073,0.1726 0.096,0.2639 l -0.01,0.032 c 0,0.021 0,0.043 0,0.064 l 0.024,0.056 c 0.2936,0.5495 0.629,1.0755 1,1.576 1.7179,2.4306 3.4781,4.831 5.28,7.1999 4.9513,6.551 9.9704,13.0679 15.04,19.5281 l 10.672,13.6321 c 3.3314,4.2313 6.6137,8.4914 9.856,12.792 4.0218,5.3694 7.94,10.8156 11.752,16.3359 0.5623,0.8197 1.1163,1.6425 1.664,2.4719 4.1358,6.0911 7.8975,12.428218 11.264,18.976138 1.0939,2.1472 2.1343,4.321 3.12,6.52 l 0.2,0.7681 c 0.2415,0.8161 0.5165,1.6221 0.824,2.4159 0.3728,0.9595 0.7706,1.9089 1.192,2.848 h 19.704 c -0.1016,-0.3152 -0.2041,-0.6365 -0.304,-0.952 l -0.504,-1.512 c -2.4449,-7.1742 -5.4213,-14.1561 -8.904,-20.888038 -2.9734,-5.7687 -6.2444,-11.3787 -9.8,-16.8079 -3.5455,-5.4188 -7.238,-10.7415 -11.072,-15.9601 -6.2643,-8.5206 -12.657,-16.9454 -19.176,-25.2721 l -7.368,-9.4399 c -6.2523,-7.9705 -12.4091,-16.021299 -18.464,-24.1440961 l -1,-1.3679001 -0.976,-1.3201 c -3.9699,-5.44549994 -7.7848,-11.0026014 -11.44,-16.6639038 l -1.68,-2.5761 c -0.4389,-0.7009 -0.918,-1.3759 -1.432,-2.0239 -0.1,-0.1264 -0.2228,-0.2331 -0.368,-0.3039 -0.043,0 -0.084,0.015 -0.12,0.04 l -0.032,0.048 c -0.011,0.051 -0.026,0.1015 -0.04,0.1521 l -0.01,0.096 -0.01,0.1121 -0.01,0.2639 c -0.02,0.7119 -0.022,1.4241 -0.01,2.136 h -6.096 c -1.2691,-0.01 -2.5378,0.052 -3.8,0.1841 -0.3053,0.027 -0.606,0.092 -0.896,0.1918 -0.071,0.036 -0.1363,0.081 -0.2,0.1281 l -0.04,0.072 c -0.022,0.046 -0.046,0.092 -0.072,0.136 -0.056,0.054 -0.1219,0.095 -0.192,0.1281 -0.066,0.01 -0.133,0.019 -0.2,0.024 l -0.12,-0.01 -0.136,-0.01 c -0.1065,-0.022 -0.2131,-0.044 -0.32,-0.064 l -0.192,-0.048 -0.2,-0.064 -0.224,-0.064 -0.24,-0.088 -0.264,-0.088 -1.976,-0.7279 c 0.8196,-0.2906 1.6465,-0.5602 2.48,-0.8081 0.4161,-0.1577 0.8595,-0.2342 1.304,-0.216 0.081,0.018 0.1583,0.05 0.232,0.088 l 0.056,0.048 0.04,0.064 0.032,0.064 0.04,0.072 0.08,0.056 0.12,0.056 0.168,0.056 c 0.8888,0.189 1.7953,0.2829 2.704,0.2801 0.7521,0.021 1.5037,0.034 2.256,0.04 h 5.2 c 0.012,-0.704 0.01,-1.4081 -0.01,-2.1119 -0.016,-0.3379 -0.065,-0.6734 -0.152,-1 -0.025,-0.093 -0.069,-0.178 -0.112,-0.2641 l -0.048,-0.056 -0.04,-0.048 -0.048,-0.024 -0.136,-0.032 -0.088,-0.048 -0.072,-0.088 -0.072,-0.12 -0.056,-0.136 c -0.046,-0.1888 -0.074,-0.3817 -0.08,-0.576 l -0.016,-0.08 c -0.018,-0.064 -0.036,-0.1283 -0.056,-0.192 -0.2847,-0.7882 -0.6182,-1.5581 -1,-2.304 l -0.264,-0.536 -0.28,-0.576 c -0.9095,-1.8025 -1.8533,-3.5863 -2.832,-5.3521 l -0.768,-1.448 c -3.583,-6.749 -6.6531,-13.7581 -9.184,-20.968 -1.9339,-5.5188 -3.4055,-11.1891 -4.4,-16.9519 -0.5091,-2.9985 -0.7921,-6.031 -0.848,-9.072 -0.1443,-4.463 -0.01,-8.9307 0.416,-13.376 0.2716,-2.4101 0.6914,-4.801295 1.256,-7.159983 1.2986,-5.492879 3.065,-10.864379 5.28,-16.056079 1.5063,-3.6064 3.2736,-7.0985 5.288,-10.4479 1.359,-2.0975 2.8525,-4.1044 4.472,-6.008 1.7529,-2.1232 3.6366,-4.1351 5.64,-6.024 0.7996,-0.7676 1.6672,-1.461 2.592,-2.0721 1.9054,-1.0598 4.024,-1.6789 6.2,-1.8159 2.0992,-0.1185 4.2043,0.074 6.248,0.568 2.5533,0.6022 5.0444,1.4428 7.44,2.512 4.0478,1.8077 7.9686,3.8873 11.736,6.224 4.326,2.6959 8.5125,5.6089 12.544,8.728 4.7225,3.6321 9.367,7.3667 13.928,11.2 6.4904,5.4293 12.9188,10.904391 19.312,16.447961 1.4384,1.224101 2.8735,2.453801 4.304,3.687901 l 2.048,1.7442 c 6.1248,5.244 12.3368,10.3865 18.632,15.4238 l 0.712,0.5601 0.696,0.552 c 5.4634,4.347 11.1228,8.442 16.96,12.272 5.3899,3.5593 11.0406,6.7067 16.904,9.416 4.9639,2.2939 10.1232,4.1385 15.416,5.5119 3.9276,1.0147 7.9433,1.6521 11.992,1.9041 l 0.52,0.024 0.48,0.024 0.44,0.01 0.408,0.01 c 0.6845,0.024 1.3695,-0.05 2.032,-0.2238 l 0.2,-0.064 c 0.1732,-0.069 0.3385,-0.1563 0.496,-0.256 l 0.144,-0.072 0.136,-0.064 0.128,-0.056 0.12,-0.04 0.112,-0.032 0.104,-0.024 0.104,-0.01 0.2,0.016 0.184,0.056 0.176,0.104 0.184,0.1439 0.032,0.016 0.064,0.016 0.088,0.016 0.112,0.016 0.144,0.016 c 1.3549,0.1024 2.7132,0.1553 4.072,0.1599 8.1525,0.1238 16.2948,0.1585 24.448,0.104 l 3.616,-0.016 3.672,-0.016 c 11.8193,-0.054 23.6637,-0.206 35.4801,-0.4559 2.3137,-0.041 4.6258,-0.129 6.9359,-0.264 0.4195,0 0.8377,-0.048 1.248,-0.136 l 0.032,-0.016 0.04,-0.048 0.032,-0.064 0.032,-0.088 0.04,-0.1119 0.024,-0.1281 0.032,-0.1518 0.032,-0.1681 0.032,-0.192 c 0.017,-0.1443 0.033,-0.2875 0.048,-0.4319 0.1686,-1.7525 0.2589,-3.5117 0.272,-5.2721 0.02,-1.3605 0.025,-2.7196 0.016,-4.08 z"
     id="path2" />
  <text
     xml:space="preserve"
     style="font-style:normal;font-variant:normal;font-weight:normal;font-stretch:normal;font-size:9.8778px;font-family:'Arial Unicode MS';-inkscape-font-specification:'Arial Unicode MS, Normal';font-variant-ligatures:normal;font-variant-caps:normal;font-variant-numeric:normal;font-variant-east-asian:normal;text-align:start;writing-mode:lr-tb;direction:ltr;text-anchor:start;fill:#000000;fill-opacity:1;stroke:none;stroke-width:40.2891;stroke-miterlimit:4.1;stroke-dasharray:none;stroke-opacity:1"
     x="1362.1818"
     y="95.808968"
     id="text4"><tspan
       sodipodi:role="line"
       id="tspan1">C1.06</tspan></text>
</svg>
