<?xml version="1.0" encoding="UTF-8" standalone="no"?>
<svg
   width="349.999mm"
   height="349.704mm"
   viewBox="658.000366 -1029.738281 349.999268 349.704346"
   version="1.1"
   id="svg4"
   sodipodi:docname="C1.02-MCS.svg"
   inkscape:export-filename="C1.02-MCS.jpg"
   inkscape:export-xdpi="96"
   inkscape:export-ydpi="96"
   inkscape:version="1.4 (86a8ad7, 2024-10-11)"
   xmlns:inkscape="http://www.inkscape.org/namespaces/inkscape"
   xmlns:sodipodi="http://sodipodi.sourceforge.net/DTD/sodipodi-0.dtd"
   xmlns="http://www.w3.org/2000/svg"
   xmlns:svg="http://www.w3.org/2000/svg">
  <defs
     id="defs4" />
  <sodipodi:namedview
     id="namedview4"
     pagecolor="#ffffff"
     bordercolor="#000000"
     borderopacity="0.25"
     inkscape:showpageshadow="2"
     inkscape:pageopacity="0.0"
     inkscape:pagecheckerboard="0"
     inkscape:deskcolor="#d1d1d1"
     inkscape:document-units="mm"
     inkscape:zoom="0.4183955"
     inkscape:cx="662.05301"
     inkscape:cy="660.85797"
     inkscape:window-width="1366"
     inkscape:window-height="705"
     inkscape:window-x="-8"
     inkscape:window-y="-8"
     inkscape:window-maximized="1"
     inkscape:current-layer="svg4" />
  <path
     transform="matrix(1,0,0,-1,-7.72998,368.491577)"
     style="stroke:#0000ff;stroke-width:0.05mm;fill:none"
     d="M665.754639,1048.782837L665.754639,1048.782837C665.75,1048.84668,677.333984,1048.71167,691.476318,1048.766846L717.189819,1048.86731L717.223938,1052.833374M665.754639,1048.782837C665.75,1048.84668,665.74292,1060.449097,665.738464,1074.565796L665.730347,1100.232666L669.293579,1100.263184C672.651245,1100.292114,672.95752,1100.207764,674.604004,1098.801025C676.554626,1097.134277,677.649658,1094.973145,677.272583,1093.534058C676.855225,1091.940796,678.759644,1090.185303,680.930725,1090.161865C683.501099,1090.134277,684.642944,1090.595703,685.239929,1091.903687C685.858704,1093.259277,685.935181,1129.972168,685.32251,1131.531616C684.867493,1132.689819,683.482422,1133.243408,681.10199,1133.21875C678.060669,1133.187134,677.167358,1132.293457,677.390137,1129.504883C677.506042,1128.054932,676.644592,1126.588867,674.573975,1124.712158C672.845764,1123.145752,672.645203,1123.085449,669.266113,1123.114746L665.754272,1123.145508L665.754272,1223.54834L665.754272,1323.951172L669.266113,1323.981812C672.645203,1324.011108,672.845825,1323.950806,674.573975,1322.384399C676.644653,1320.50769,677.506042,1319.041626,677.390137,1317.591675C677.167358,1314.803223,678.060669,1313.909424,681.10199,1313.877808C683.482483,1313.853149,684.867493,1314.40686,685.322266,1315.564941C685.837646,1316.877441,685.837646,1353.937622,685.322266,1355.250122C684.858032,1356.432495,683.477356,1356.962036,680.930725,1356.934692C678.759644,1356.911255,676.855225,1355.155762,677.272583,1353.562622C677.649597,1352.123535,676.554626,1349.962402,674.604004,1348.295654C672.95752,1346.888794,672.651306,1346.804565,669.293579,1346.833374L665.730347,1346.864014L665.730347,1372.546997L665.730347,1398.229858L691.460083,1398.229858L717.189697,1398.229858L717.220459,1394.673218C717.24939,1391.321533,717.164917,1391.015869,715.755493,1389.372437C714.085754,1387.425293,711.920654,1386.332275,710.479004,1386.708618C708.882874,1387.125244,707.124146,1385.224365,707.100769,1383.057129C707.073303,1380.515137,707.603882,1379.136963,708.788391,1378.673584C710.103333,1378.15918,747.230835,1378.15918,748.545776,1378.673584C749.706055,1379.127563,750.260681,1380.51001,750.235962,1382.88623C750.204346,1385.919189,749.308838,1386.812988,746.522949,1386.592285C745.059631,1386.476318,743.085205,1387.647949,741.511475,1389.566162C740.273682,1391.074829,740.136841,1391.563477,740.109192,1394.769653L740.043823,1398.22876L937.697693,1398.102783L941.176697,1398.160645L941.345459,1394.756592C941.376221,1391.182373,941.333313,1391.037231,939.745972,1389.345581C937.845947,1387.320435,936.376099,1386.477295,934.944458,1386.591309C932.15094,1386.813721,931.255615,1385.921997,931.223877,1382.88623C931.199219,1380.51001,931.753906,1379.127563,932.914063,1378.67334C934.477112,1378.061523,971.375854,1378.137329,972.552002,1378.754761C973.984863,1379.507202,974.211792,1380.038574,974.219727,1382.660522C974.228149,1385.477295,973.119141,1386.825073,970.930054,1386.658569C969.121582,1386.521118,967.168457,1387.566528,965.532043,1389.548096C964.326294,1391.008179,964.211426,1391.464844,964.239502,1394.690186L964.270264,1398.229858L990,1398.229858L1015.729614,1398.229858L1015.729614,1372.535034L1015.729614,1346.840088L1012.335083,1346.821533C1008.983398,1346.79248,1008.299927,1346.884644,1006.656372,1348.294067C1004.709229,1349.963867,1003.616211,1352.128906,1003.992676,1353.570557C1004.409302,1355.166748,1002.508301,1356.925415,1000.341125,1356.948853C997.775391,1356.976807,996.635742,1356.51416,996.039795,1355.203979C995.422119,1353.845947,995.345703,1317.066162,995.957397,1315.503784C996.411499,1314.343628,997.794067,1313.78894,1000.170227,1313.813599C1003.206116,1313.845337,1004.097717,1314.740723,1003.875183,1317.53418C1003.759521,1318.986816,1004.619507,1320.455566,1006.686279,1322.335693C1008.411926,1323.905273,1008.759521,1324.011353,1012.137207,1323.981812L1015.704712,1323.951172L1015.704712,1223.54834L1015.704712,1123.145508L1011.63501,1123.145874C1008.283325,1123.116943,1007.977783,1123.201416,1006.334229,1124.61084C1004.387085,1126.280518,1003.294128,1128.445557,1003.670471,1129.887207C1004.087219,1131.483398,1002.186218,1133.242188,1000.018921,1133.265625C997.453247,1133.293457,996.313599,1132.830811,995.717651,1131.520752C995.099976,1130.162598,995.02356,1093.382813,995.635254,1091.820557C996.089355,1090.6604,997.471924,1090.105713,999.848022,1090.130371C1002.883911,1090.162109,1003.775513,1091.057373,1003.553101,1093.85083C1003.437378,1095.303589,1004.297424,1096.772217,1006.364075,1098.652344C1008.089722,1100.221924,1008.78772,1100.292847,1012.165405,1100.263306L1015.728577,1100.232666L1015.728577,1074.549683L1015.728577,1048.866699L989.998962,1048.866699L964.269165,1048.866699L964.238464,1052.423462C964.209534,1055.775146,964.293945,1056.080688,965.703369,1057.724243C967.373169,1059.671387,969.538147,1060.764404,970.979858,1060.387939C972.57605,1059.971313,974.334717,1061.872314,974.358154,1064.039551C974.386108,1066.605225,973.923462,1067.744873,972.613281,1068.34082C971.255188,1068.958496,934.475464,1069.034912,932.913086,1068.423218C931.75293,1067.969116,931.198242,1066.586548,931.2229,1064.210449C931.254639,1061.174561,932.149963,1060.282959,934.943481,1060.505371C936.396179,1060.621094,937.864868,1059.761108,939.744995,1057.694336C941.314575,1055.96875,941.374756,1055.769531,941.345215,1052.391846L941.314453,1048.882202L840.729919,1048.882202L740.144348,1048.882202L740.113708,1052.391846C740.084778,1055.74353,740.201965,1056.181152,741.611389,1057.824707C743.281189,1059.771851,745.446167,1060.864868,746.887878,1060.488403C748.48407,1060.071777,750.242737,1061.972778,750.266174,1064.140015C750.294128,1066.705688,749.831482,1067.845337,748.521301,1068.441284C747.163208,1069.05896,710.383484,1069.135376,708.821106,1068.523682C707.66095,1068.06958,707.106262,1066.687012,707.13092,1064.310913C707.162659,1061.275024,708.057983,1060.383423,710.851501,1060.605835C712.304199,1060.721558,713.772888,1059.861572,715.653015,1057.7948C717.222595,1056.069214,717.253479,1056.21106,717.223938,1052.833374"
     id="path1" />
  <path
     style="fill:#000000;fill-rule:evenodd;stroke:none"
     d="m 1001.2946,-864.1654 c 5.2971,0.15942 5.8184,0.22802 6.0697,0.79833 0.238,0.54053 0.3038,15.09473 0.073,16.1825 -0.081,0.38037 -0.2681,0.69568 -0.4473,0.75256 -0.9132,0.29029 -13.24331,0.48548 -32.67972,0.51734 -27.60058,0.0452 -39.77465,-0.16016 -40.7937,-0.68787 -0.45636,-0.23633 -0.58545,-0.23877 -1.00988,-0.0192 -0.60822,0.31469 -1.63807,0.58874 -2.78687,0.7417 -0.48657,0.0648 -1.0838,0.14917 -1.32709,0.18737 -0.58502,0.092 -1.36993,0.18348 -4.33514,0.50464 -2.52942,0.27405 -7.55939,0.98841 -8.89111,1.26282 -0.21875,0.045 -0.57703,0.11816 -0.79627,0.16235 -0.21924,0.0443 -1.39392,0.33069 -2.61041,0.63648 -1.21649,0.30591 -2.33124,0.57544 -2.47724,0.599 -0.14599,0.0237 -0.48132,0.13086 -0.74523,0.23828 -0.26392,0.10742 -0.66199,0.22583 -0.88477,0.26318 -0.22266,0.0374 -0.62085,0.15686 -0.8847,0.26575 -0.26386,0.10888 -0.66205,0.22851 -0.88471,0.26587 -0.22272,0.0374 -0.63476,0.16223 -0.91565,0.27759 -0.28088,0.11535 -0.63922,0.23584 -0.79626,0.26757 -0.15705,0.0319 -0.58161,0.18921 -0.94342,0.34961 -0.36182,0.16052 -0.71021,0.29175 -0.77411,0.29175 -0.064,0 -1.32068,0.47705 -2.79261,1.06006 -1.47198,0.58313 -2.74707,1.05481 -2.83349,1.04822 -0.0864,-0.007 -0.20587,0.0568 -0.26538,0.14087 -0.13288,0.18774 -1.46393,0.78564 -1.68103,0.75524 -0.0864,-0.0122 -0.20581,0.0444 -0.26538,0.12598 -0.17871,0.24439 -4.08936,2.21436 -4.09229,2.0614 -10e-4,-0.0778 -0.0612,-0.053 -0.13269,0.0551 -0.17139,0.25879 -2.69495,1.68261 -2.69836,1.52234 -0.002,-0.0681 -0.0613,-0.0394 -0.13275,0.0638 -0.16669,0.24084 -2.81678,1.88586 -2.97736,1.84826 -0.0666,-0.0156 -0.16992,0.0443 -0.22943,0.13294 -0.14191,0.21155 -2.39057,1.72888 -2.46893,1.66602 -0.0332,-0.0267 -0.15259,0.063 -0.26539,0.19921 -0.29492,0.3562 -1.98895,1.54786 -2.2005,1.54786 -0.0982,0 -0.22436,0.11962 -0.28033,0.26587 -0.056,0.14624 -0.21716,0.26586 -0.35815,0.26586 -0.14087,0 -0.28272,0.0674 -0.31519,0.14991 -0.066,0.16797 -2.9129,2.50818 -3.05115,2.50818 -0.0486,0 -0.27826,0.17944 -0.5105,0.39868 -1.10534,1.04406 -3.65637,3.35473 -4.03515,3.65515 -0.7912,0.62744 -4.7793,4.8103 -6.52588,6.84448 -0.50208,0.58472 -1.18604,1.37732 -1.5199,1.76123 -0.3338,0.38403 -0.60693,0.71826 -0.60693,0.74268 0,0.0245 -0.74903,1.03076 -1.66455,2.2362 -1.87158,2.46424 -4.9361,7.07636 -6.21118,9.34796 -0.46509,0.82837 -0.92054,1.555 -1.01215,1.61457 -0.0916,0.0597 -0.15942,0.15948 -0.15064,0.22198 0.009,0.0624 -0.57153,1.28955 -1.28961,2.72693 -1.47571,2.9538 -2.77661,5.89539 -3.70288,8.37262 -0.34619,0.9259 -0.72717,1.92267 -0.84662,2.21521 -0.11944,0.2923 -0.23541,0.61127 -0.25769,0.7088 -0.0223,0.0974 -0.36468,1.21375 -0.76092,2.4809 -1.22284,3.90997 -2.68115,10.0542 -2.94409,12.40454 -0.0328,0.29236 -0.19281,1.52838 -0.35566,2.7467 -0.1629,1.21833 -0.32196,2.4942 -0.35345,2.83533 -0.0316,0.34112 -0.10675,1.17847 -0.16711,1.86072 -0.0952,1.07715 -0.21912,1.9422 -0.72254,5.04523 -0.0548,0.33825 -0.21625,0.84893 -0.35864,1.13476 -0.29663,0.59552 -0.33502,1.20386 -0.0914,1.44879 0.43652,0.43897 0.62927,11.99017 0.62665,37.55921 -0.002,18.6618 -0.10029,28.64965 -0.32709,33.22656 -0.0363,0.73096 -0.0765,1.66174 -0.0895,2.06842 -0.0383,1.20013 -0.12707,1.2121 -8.87097,1.19635 -4.4552,-0.008 -7.73651,-0.0851 -8.05103,-0.18915 -0.48925,-0.16192 -0.53997,-0.25799 -0.6477,-1.22693 -0.23883,-2.14813 -0.41382,-18.11859 -0.40851,-37.29034 0.007,-24.26575 0.19379,-34.91455 0.62085,-35.34223 0.24194,-0.24231 0.21039,-1.05133 -0.0512,-1.31298 -0.29895,-0.29908 -0.36633,-4.09742 -0.1214,-6.84937 0.10407,-1.16956 0.19281,-2.24609 0.19721,-2.39227 0.004,-0.14624 0.0828,-0.86389 0.17419,-1.59491 0.0913,-0.73096 0.20429,-1.68787 0.25098,-2.12647 0.41723,-3.91882 2.35034,-13.7658 3.02649,-15.41711 0.0599,-0.14618 0.13763,-0.42529 0.17279,-0.6203 0.0352,-0.19476 0.11505,-0.474 0.17755,-0.62006 0.0625,-0.1463 0.14331,-0.44043 0.1795,-0.65375 0.0936,-0.55114 2.17951,-6.80584 2.41187,-7.23205 0.10626,-0.19495 0.21478,-0.48279 0.24121,-0.63983 0.22424,-1.33277 6.39056,-14.51154 6.78998,-14.51154 0.0928,0 0.1488,-0.0642 0.12451,-0.14258 -0.15186,-0.48962 7.20557,-11.90759 7.67291,-11.90759 0.0863,0 0.15692,-0.0831 0.15692,-0.18481 0,-0.25354 1.4206,-2.1189 1.61377,-2.1189 0.0856,0 0.15564,-0.0854 0.15564,-0.18994 0,-0.23706 1.96521,-2.64527 2.15869,-2.64527 0.0779,0 0.14161,-0.0864 0.14161,-0.19201 0,-0.55615 7.97918,-8.77002 11.14764,-11.47547 0.82721,-0.70642 1.70392,-1.48022 1.9483,-1.7196 0.24439,-0.23938 0.49475,-0.43518 0.5564,-0.43518 0.0616,0 0.37189,-0.24316 0.68945,-0.54016 0.92041,-0.86109 5.2107,-4.06726 5.44251,-4.06726 0.11584,0 0.21063,-0.0685 0.21063,-0.1521 0,-0.14527 1.83423,-1.44275 2.03961,-1.44275 0.0542,0 0.26221,-0.15271 0.46228,-0.33936 0.70593,-0.65869 7.40491,-4.71252 7.40979,-4.48401 10e-4,0.0701 0.0612,0.0437 0.13269,-0.0584 0.19147,-0.27355 1.81055,-1.18225 1.81372,-1.01794 10e-4,0.0771 0.0612,0.0505 0.13269,-0.0593 0.38739,-0.59521 12.78162,-6.20996 12.78162,-5.79028 0,0.0534 0.10028,0.0136 0.22278,-0.0883 0.2688,-0.22338 4.90869,-1.83129 4.90869,-1.70092 0,0.0503 0.0996,0.0282 0.22119,-0.0491 0.12164,-0.0774 0.26099,-0.14856 0.30969,-0.1582 0.0486,-0.01 0.30432,-0.10742 0.56824,-0.21728 0.26392,-0.10987 0.66199,-0.23023 0.88477,-0.26758 0.22265,-0.0374 0.61535,-0.15491 0.87255,-0.26123 0.37421,-0.15467 1.43592,-0.41834 1.92115,-0.47705 0.0486,-0.006 0.16809,-0.0608 0.26538,-0.12207 0.22607,-0.14246 6.22302,-1.53406 7.057,-1.63758 0.34565,-0.043 0.6908,-0.11645 0.76697,-0.1632 0.0762,-0.0469 0.56031,-0.1305 1.07581,-0.18604 0.5155,-0.0554 1.0025,-0.14111 1.08233,-0.19055 0.0798,-0.0494 0.49415,-0.12842 0.92072,-0.17554 0.42664,-0.0471 1.25336,-0.16528 1.83728,-0.26245 0.58392,-0.0973 1.57111,-0.22266 2.19379,-0.27869 0.62262,-0.0559 1.17999,-0.13086 1.23858,-0.16638 0.0586,-0.0355 0.86304,-0.12158 1.78754,-0.19116 0.9245,-0.0696 2.03931,-0.16016 2.47723,-0.20129 0.43799,-0.0411 2.0708,-0.1211 3.6286,-0.17786 2.37177,-0.0864 2.94361,-0.0566 3.5163,0.18298 0.77301,0.32349 1.46716,0.37256 1.55493,0.10987 0.0851,-0.2544 2.37989,-0.36548 9.79102,-0.47449 3.60083,-0.0529 6.58282,-0.13001 6.62652,-0.17151 0.11811,-0.11182 46.92518,0.052 51.14647,0.17896 z"
     id="path2" />
  <text
     xml:space="preserve"
     style="font-style:normal;font-variant:normal;font-weight:normal;font-stretch:normal;font-size:9.87779px;font-family:'Arial Unicode MS';-inkscape-font-specification:'Arial Unicode MS, Normal';font-variant-ligatures:normal;font-variant-caps:normal;font-variant-numeric:normal;font-variant-east-asian:normal;text-align:start;writing-mode:lr-tb;direction:ltr;text-anchor:start;fill:#000000;fill-opacity:1;stroke:none;stroke-width:40.289;stroke-miterlimit:4.1;stroke-dasharray:none;stroke-opacity:1"
     x="955.18152"
     y="-707.19098"
     id="text4"><tspan
       sodipodi:role="line"
       id="tspan1">C1.02</tspan></text>
</svg>
