<?xml version="1.0" encoding="UTF-8" standalone="no"?>
<svg
   width="350.303mm"
   height="349.904mm"
   viewBox="1059.578491 -1028.301270 350.302734 349.904480"
   version="1.1"
   id="svg4"
   sodipodi:docname="C1.03-CCS.svg"
   inkscape:version="1.4 (86a8ad7, 2024-10-11)"
   inkscape:export-filename="C1.03-CCS.jpg"
   inkscape:export-xdpi="96"
   inkscape:export-ydpi="96"
   xmlns:inkscape="http://www.inkscape.org/namespaces/inkscape"
   xmlns:sodipodi="http://sodipodi.sourceforge.net/DTD/sodipodi-0.dtd"
   xmlns="http://www.w3.org/2000/svg"
   xmlns:svg="http://www.w3.org/2000/svg">
  <defs
     id="defs4" />
  <sodipodi:namedview
     id="namedview4"
     pagecolor="#ffffff"
     bordercolor="#000000"
     borderopacity="0.25"
     inkscape:showpageshadow="2"
     inkscape:pageopacity="0.0"
     inkscape:pagecheckerboard="0"
     inkscape:deskcolor="#d1d1d1"
     inkscape:document-units="mm"
     inkscape:zoom="0.41815637"
     inkscape:cx="662.43162"
     inkscape:cy="1043.8679"
     inkscape:window-width="1366"
     inkscape:window-height="705"
     inkscape:window-x="-8"
     inkscape:window-y="-8"
     inkscape:window-maximized="1"
     inkscape:current-layer="svg4" />
  <path
     transform="matrix(1,0,0,-1,394.151611,369.928589)"
     style="stroke:#0000ff;stroke-width:0.05mm;fill:none"
     d="M665.754639,1048.782837L665.754639,1048.782837C665.75,1048.84668,677.333984,1048.71167,691.476318,1048.766846L717.189819,1048.86731L717.223938,1052.833374M665.754639,1048.782837C665.75,1048.84668,665.74292,1060.449097,665.738464,1074.565796L665.730347,1100.232666L669.293579,1100.263184C672.651245,1100.292114,672.95752,1100.207764,674.604004,1098.801025C676.554626,1097.134277,677.649658,1094.973145,677.272583,1093.534058C676.855225,1091.940796,678.759644,1090.185303,680.930725,1090.161865C683.501099,1090.134277,684.642944,1090.595703,685.239929,1091.903687C685.858704,1093.259277,685.935181,1129.972168,685.32251,1131.531616C684.867493,1132.689819,683.482422,1133.243408,681.10199,1133.21875C678.060669,1133.187134,677.167358,1132.293457,677.390137,1129.504883C677.506042,1128.054932,676.644592,1126.588867,674.573975,1124.712158C672.845764,1123.145752,672.645203,1123.085449,669.266113,1123.114746L665.754272,1123.145508L665.754272,1223.54834L665.754272,1323.951172L669.266113,1323.981812C672.645203,1324.011108,672.845825,1323.950806,674.573975,1322.384399C676.644653,1320.50769,677.506042,1319.041626,677.390137,1317.591675C677.167358,1314.803223,678.060669,1313.909424,681.10199,1313.877808C683.482483,1313.853149,684.867493,1314.40686,685.322266,1315.564941C685.837646,1316.877441,685.837646,1353.937622,685.322266,1355.250122C684.858032,1356.432495,683.477356,1356.962036,680.930725,1356.934692C678.759644,1356.911255,676.855225,1355.155762,677.272583,1353.562622C677.649597,1352.123535,676.554626,1349.962402,674.604004,1348.295654C672.95752,1346.888794,672.651306,1346.804565,669.293579,1346.833374L665.730347,1346.864014L665.730347,1372.546997L665.730347,1398.229858L691.460083,1398.229858L717.189697,1398.229858L717.220459,1394.673218C717.24939,1391.321533,717.164917,1391.015869,715.755493,1389.372437C714.085754,1387.425293,711.920654,1386.332275,710.479004,1386.708618C708.882874,1387.125244,707.124146,1385.224365,707.100769,1383.057129C707.073303,1380.515137,707.603882,1379.136963,708.788391,1378.673584C710.103333,1378.15918,747.230835,1378.15918,748.545776,1378.673584C749.706055,1379.127563,750.260681,1380.51001,750.235962,1382.88623C750.204346,1385.919189,749.308838,1386.812988,746.522949,1386.592285C745.059631,1386.476318,743.085205,1387.647949,741.511475,1389.566162C740.273682,1391.074829,740.136841,1391.563477,740.109192,1394.769653L740.043823,1398.22876L937.697693,1398.102783L941.176697,1398.160645L941.345459,1394.756592C941.376221,1391.182373,941.333313,1391.037231,939.745972,1389.345581C937.845947,1387.320435,936.376099,1386.477295,934.944458,1386.591309C932.15094,1386.813721,931.255615,1385.921997,931.223877,1382.88623C931.199219,1380.51001,931.753906,1379.127563,932.914063,1378.67334C934.477112,1378.061523,971.375854,1378.137329,972.552002,1378.754761C973.984863,1379.507202,974.211792,1380.038574,974.219727,1382.660522C974.228149,1385.477295,973.119141,1386.825073,970.930054,1386.658569C969.121582,1386.521118,967.168457,1387.566528,965.532043,1389.548096C964.326294,1391.008179,964.211426,1391.464844,964.239502,1394.690186L964.270264,1398.229858L990,1398.229858L1015.729614,1398.229858L1015.729614,1372.535034L1015.729614,1346.840088L1012.335083,1346.821533C1008.983398,1346.79248,1008.299927,1346.884644,1006.656372,1348.294067C1004.709229,1349.963867,1003.616211,1352.128906,1003.992676,1353.570557C1004.409302,1355.166748,1002.508301,1356.925415,1000.341125,1356.948853C997.775391,1356.976807,996.635742,1356.51416,996.039795,1355.203979C995.422119,1353.845947,995.345703,1317.066162,995.957397,1315.503784C996.411499,1314.343628,997.794067,1313.78894,1000.170227,1313.813599C1003.206116,1313.845337,1004.097717,1314.740723,1003.875183,1317.53418C1003.759521,1318.986816,1004.619507,1320.455566,1006.686279,1322.335693C1008.411926,1323.905273,1008.759521,1324.011353,1012.137207,1323.981812L1015.704712,1323.951172L1015.704712,1223.54834L1015.704712,1123.145508L1011.63501,1123.145874C1008.283325,1123.116943,1007.977783,1123.201416,1006.334229,1124.61084C1004.387085,1126.280518,1003.294128,1128.445557,1003.670471,1129.887207C1004.087219,1131.483398,1002.186218,1133.242188,1000.018921,1133.265625C997.453247,1133.293457,996.313599,1132.830811,995.717651,1131.520752C995.099976,1130.162598,995.02356,1093.382813,995.635254,1091.820557C996.089355,1090.6604,997.471924,1090.105713,999.848022,1090.130371C1002.883911,1090.162109,1003.775513,1091.057373,1003.553101,1093.85083C1003.437378,1095.303589,1004.297424,1096.772217,1006.364075,1098.652344C1008.089722,1100.221924,1008.78772,1100.292847,1012.165405,1100.263306L1015.728577,1100.232666L1015.728577,1074.549683L1015.728577,1048.866699L989.998962,1048.866699L964.269165,1048.866699L964.238464,1052.423462C964.209534,1055.775146,964.293945,1056.080688,965.703369,1057.724243C967.373169,1059.671387,969.538147,1060.764404,970.979858,1060.387939C972.57605,1059.971313,974.334717,1061.872314,974.358154,1064.039551C974.386108,1066.605225,973.923462,1067.744873,972.613281,1068.34082C971.255188,1068.958496,934.475464,1069.034912,932.913086,1068.423218C931.75293,1067.969116,931.198242,1066.586548,931.2229,1064.210449C931.254639,1061.174561,932.149963,1060.282959,934.943481,1060.505371C936.396179,1060.621094,937.864868,1059.761108,939.744995,1057.694336C941.314575,1055.96875,941.374756,1055.769531,941.345215,1052.391846L941.314453,1048.882202L840.729919,1048.882202L740.144348,1048.882202L740.113708,1052.391846C740.084778,1055.74353,740.201965,1056.181152,741.611389,1057.824707C743.281189,1059.771851,745.446167,1060.864868,746.887878,1060.488403C748.48407,1060.071777,750.242737,1061.972778,750.266174,1064.140015C750.294128,1066.705688,749.831482,1067.845337,748.521301,1068.441284C747.163208,1069.05896,710.383484,1069.135376,708.821106,1068.523682C707.66095,1068.06958,707.106262,1066.687012,707.13092,1064.310913C707.162659,1061.275024,708.057983,1060.383423,710.851501,1060.605835C712.304199,1060.721558,713.772888,1059.861572,715.653015,1057.7948C717.222595,1056.069214,717.253479,1056.21106,717.223938,1052.833374"
     id="path1" />
  <path
     style="fill:#000000;fill-rule:evenodd;stroke:none"
     d="m 1409.2271,-861.86752 c 0.5659,0.41 0.7207,2.2285 0.7167,8.4216 0,5.1937 -0.082,6.6317 -0.4576,8.3334 -0.1022,0.4627 -0.3675,0.6605 -0.991,0.7385 -0.3084,0.039 -0.7033,0.1129 -0.8776,0.165 -0.1743,0.052 -0.8782,0.1424 -1.5642,0.2005 -0.6861,0.058 -1.6484,0.1417 -2.1384,0.1858 -0.4901,0.044 -1.4924,0.1172 -2.2274,0.162 -0.7351,0.045 -1.6974,0.1217 -2.1385,0.1707 -0.4409,0.049 -1.5636,0.1354 -2.4947,0.1919 -0.931,0.057 -2.0136,0.1309 -2.4057,0.1651 -1.332,0.1161 -8.1923,0.9775 -9.1945,1.1545 -0.5486,0.097 -1.3505,0.2173 -1.782,0.2678 -0.4314,0.05 -0.9848,0.1267 -1.2299,0.1697 -1.4579,0.2556 -5.3853,1.0361 -7.2169,1.4341 -1.176,0.2556 -2.2987,0.4902 -2.4947,0.5215 -0.2576,0.041 -4.8312,1.1825 -5.2104,1.3003 -0.023,0.01 -0.1438,0.045 -0.2673,0.084 -0.6576,0.2087 -3.5371,0.9819 -3.8179,1.0251 -0.1798,0.028 -0.4072,0.099 -0.5052,0.159 -0.3097,0.1887 -2.0493,0.6601 -2.0493,0.5554 0,-0.055 -0.1003,-0.022 -0.2228,0.074 -0.1909,0.1494 -4.9077,1.7583 -5.5294,1.886 -0.1195,0.025 -0.4178,0.1265 -0.6629,0.2265 -0.8998,0.3675 -5.7969,2.1958 -5.9695,2.2288 -0.098,0.019 -0.2648,0.088 -0.3705,0.1531 -0.262,0.1621 -5.287,2.2661 -5.51,2.3068 -0.098,0.018 -0.2183,0.075 -0.2673,0.1258 -0.1519,0.1585 -1.677,0.792 -1.7563,0.7295 -0.041,-0.033 -0.124,0.01 -0.1839,0.088 -0.06,0.081 -1.6326,0.8891 -3.4948,1.7956 -3.4703,1.6895 -8.7077,4.4678 -10.7201,5.6865 -0.6214,0.3765 -1.1299,0.6463 -1.1299,0.5999 0,-0.047 -0.1403,0.034 -0.3119,0.1797 -0.1715,0.1452 -0.383,0.2568 -0.47,0.2477 -0.087,-0.01 -0.2074,0.057 -0.2674,0.1461 -0.1454,0.217 -4.5446,2.9616 -4.633,2.8906 -0.038,-0.031 -0.1183,0.016 -0.1783,0.1033 -0.1712,0.2497 -1.7556,1.2818 -1.9676,1.2818 -0.1049,0 -0.1906,0.068 -0.1906,0.1505 0,0.1365 -2.2287,1.689 -2.5351,1.7658 -0.071,0.018 -0.3435,0.2288 -0.6051,0.4686 -0.2617,0.24 -0.5777,0.4364 -0.7022,0.4364 -0.1245,0 -0.2531,0.07 -0.2859,0.1566 -0.033,0.086 -1.099,0.9292 -2.3696,1.8731 -3.1066,2.3076 -6.1758,4.7356 -8.5046,6.7278 -1.0583,0.9052 -1.9542,1.646 -1.9909,1.646 -0.037,0 -0.4242,0.3371 -0.8613,0.7494 -0.4371,0.4122 -1.3097,1.22 -1.9391,1.7952 -1.5838,1.4478 -8.3441,8.0586 -8.601,8.4112 -0.2009,0.2754 -2.9582,3.2669 -4.1705,4.5246 -0.3186,0.3305 -0.5792,0.6653 -0.5792,0.7439 0,0.079 -0.2405,0.3433 -0.5345,0.5882 -0.2941,0.2447 -0.5352,0.5097 -0.5357,0.5886 -7e-4,0.079 -0.4016,0.5737 -0.891,1.0994 -0.4895,0.5256 -0.8899,0.9865 -0.8899,1.0246 0,0.038 -0.628,0.8377 -1.3956,1.7774 -0.7676,0.9397 -2.2613,2.8591 -3.3193,4.2653 -1.0581,1.4063 -1.9937,2.5833 -2.0793,2.6155 -0.085,0.033 -0.1555,0.1279 -0.1555,0.2123 0,0.1962 -4.4603,6.7389 -4.7118,6.9117 -0.1037,0.071 -0.123,0.1309 -0.043,0.1324 0.1598,0 -0.5497,1.07 -0.8499,1.2783 -0.1027,0.071 -0.1306,0.1308 -0.062,0.1323 0.1465,0 -1.6128,2.8611 -1.8591,3.02 -0.092,0.059 -0.1672,0.1783 -0.167,0.2644 3e-4,0.086 -0.5672,1.1485 -1.261,2.3609 -2.4032,4.1989 -5.445,10.0971 -7.0051,13.583 -0.2808,0.6272 -0.5537,1.1802 -0.6066,1.2286 -0.053,0.048 -0.1118,0.1676 -0.131,0.2645 -0.035,0.1758 -2.3721,5.7759 -2.7598,6.6123 -0.1124,0.2425 -0.2317,0.5857 -0.265,0.7627 -0.033,0.1772 -0.1565,0.4946 -0.2737,0.7054 -0.1172,0.2109 -0.2392,0.5395 -0.2711,0.7302 -0.032,0.1907 -0.178,0.5278 -0.3247,0.7494 -0.1467,0.2215 -0.229,0.4027 -0.183,0.4027 0.085,0 -0.3915,1.4248 -0.7966,2.3804 -0.1234,0.291 -0.2499,0.6571 -0.2813,0.8136 -0.031,0.1565 -0.1527,0.5135 -0.2697,0.7934 -0.1169,0.2799 -0.2293,0.5685 -0.2498,0.6413 -0.02,0.073 -0.057,0.1718 -0.082,0.2204 -0.024,0.048 -0.064,0.1675 -0.089,0.2644 -0.025,0.097 -0.061,0.1962 -0.081,0.2205 -0.02,0.024 -0.061,0.1631 -0.091,0.3086 -0.1235,0.596 -0.4905,1.8366 -0.6714,2.27 -0.1062,0.2546 -0.2238,0.6446 -0.2614,0.8666 -0.038,0.2219 -0.1575,0.6186 -0.2666,0.8817 -0.1092,0.2629 -0.224,0.605 -0.2552,0.7602 -0.098,0.4876 -1.3315,4.9948 -1.4429,5.2723 -0.058,0.1455 -0.091,0.3322 -0.072,0.4152 0.019,0.083 -0.048,0.2489 -0.1483,0.3689 -0.1007,0.1199 -0.1476,0.2531 -0.1043,0.2959 0.043,0.043 -0.1205,0.829 -0.3639,1.7471 -0.2434,0.9181 -0.4764,1.8677 -0.5177,2.1101 -0.041,0.2424 -0.3244,1.631 -0.6289,3.0857 -0.6134,2.9309 -1.5602,8.2024 -1.6944,9.4337 -0.047,0.4364 -0.1413,1.0315 -0.2085,1.3224 -0.067,0.291 -0.1057,0.5917 -0.086,0.6682 0.02,0.076 -0.052,0.6716 -0.1598,1.3225 -0.2154,1.2998 -0.2393,1.5133 -0.4286,3.8283 -0.071,0.8728 -0.1574,1.6322 -0.1911,1.6874 -0.034,0.055 -0.1065,0.9677 -0.1618,2.0278 -0.055,1.06 -0.1385,2.2447 -0.1847,2.6327 -0.046,0.3879 -0.1278,1.4988 -0.1813,2.4686 -0.12,2.1733 -0.3847,4.4923 -0.6375,5.5842 -0.1841,0.7953 -0.2191,0.8296 -1.0227,1.0022 -0.4577,0.098 -0.9524,0.1824 -1.0994,0.1868 -0.147,0 -1.6706,0.091 -3.3858,0.1935 -4.7706,0.2838 -11.7167,-0.072 -12.275,-0.6288 -0.1905,-0.1902 -0.084,-8.5315 0.1388,-10.9225 0.2352,-2.5177 0.338,-3.6044 0.4669,-4.9372 0.047,-0.485 0.1306,-1.3975 0.1859,-2.0279 0.055,-0.6304 0.2562,-2.3363 0.4464,-3.7911 0.1902,-1.4546 0.3862,-3.002 0.4357,-3.4384 0.049,-0.4364 0.1447,-1.0315 0.2119,-1.3225 0.067,-0.2909 0.1083,-0.5837 0.092,-0.6507 -0.017,-0.067 0.1322,-0.9795 0.331,-2.0279 0.1988,-1.0482 0.4023,-2.2234 0.4522,-2.6113 0.05,-0.3879 0.4052,-2.1732 0.7894,-3.9674 0.3842,-1.7941 0.7388,-3.5001 0.788,-3.7911 0.1233,-0.7283 1.503,-6.2859 1.6416,-6.6124 0.062,-0.1455 0.1417,-0.423 0.1776,-0.6171 0.084,-0.456 0.9316,-3.4458 1.0741,-3.7911 0.06,-0.1455 0.1402,-0.446 0.178,-0.6679 0.038,-0.2221 0.158,-0.6188 0.2673,-0.8817 0.1092,-0.2631 0.2166,-0.5575 0.2386,-0.6545 0.1199,-0.5266 0.8505,-2.8472 0.9438,-2.9976 0.06,-0.097 0.1295,-0.3044 0.1542,-0.4609 0.025,-0.1564 0.1176,-0.4738 0.2065,-0.7053 0.089,-0.2314 0.1832,-0.5002 0.2095,-0.5971 0.1109,-0.4101 1.0434,-3.0407 1.25,-3.5267 0.1237,-0.291 0.2533,-0.6738 0.2878,-0.8508 0.034,-0.177 0.1586,-0.4945 0.2759,-0.7053 0.1172,-0.2109 0.2336,-0.5024 0.2586,-0.648 0.1088,-0.6306 3.91,-9.8388 4.1491,-10.0507 0.055,-0.049 0.1246,-0.2073 0.1554,-0.3528 0.031,-0.1454 0.4477,-1.0796 0.9266,-2.0759 0.4789,-0.9965 0.8744,-1.8497 0.8789,-1.896 0.025,-0.2622 3.2943,-6.5415 3.4616,-6.6492 0.1106,-0.071 0.1482,-0.1307 0.083,-0.1323 -0.1214,0 1.9417,-3.9009 2.1477,-4.0583 0.063,-0.048 0.219,-0.3261 0.3454,-0.617 0.3377,-0.7769 5.0403,-8.5076 5.4212,-8.9121 0.1788,-0.19 0.2794,-0.3453 0.2236,-0.3453 -0.1158,0 0.9229,-1.5568 3.6174,-5.4222 1.0311,-1.4789 1.9416,-2.6891 2.0235,-2.6891 0.082,0 0.149,-0.094 0.149,-0.2095 0,-0.2329 4.2719,-5.8947 5.1469,-6.8217 0.3055,-0.3235 0.5553,-0.6287 0.5553,-0.6783 0,-0.101 3.821,-4.6411 4.9386,-5.8679 0.3976,-0.4363 1.4737,-1.6266 2.3913,-2.6449 3.314,-3.6773 9.8595,-10.0987 13.6972,-13.4375 0.4411,-0.3836 1.0826,-0.9691 1.4256,-1.3011 0.3431,-0.3318 0.7239,-0.603 0.8465,-0.6027 0.1225,4e-4 0.2227,-0.071 0.2227,-0.1578 0,-0.182 4.009,-3.5445 4.2259,-3.5445 0.079,0 0.2434,-0.1586 0.3658,-0.3527 0.1225,-0.1939 0.3422,-0.3526 0.4884,-0.3526 0.1462,0 0.2658,-0.067 0.2658,-0.148 0,-0.1342 2.0434,-1.7917 2.2088,-1.7917 0.038,0 0.3076,-0.2182 0.598,-0.4848 0.5836,-0.5359 5.2216,-3.8975 5.9212,-4.2917 0.243,-0.1368 0.5238,-0.3369 0.6237,-0.4444 0.3507,-0.3775 3.6566,-2.5623 3.6593,-2.4185 0,0.08 0.062,0.062 0.1336,-0.04 0.2558,-0.3628 1.4117,-1.1333 1.5277,-1.0183 0.065,0.064 0.118,0.024 0.118,-0.089 0,-0.113 0.1202,-0.2057 0.2672,-0.2057 0.1471,0 0.2673,-0.067 0.2673,-0.1485 0,-0.082 0.2985,-0.3 0.6634,-0.4849 0.3649,-0.1851 0.82,-0.4744 1.0115,-0.6431 0.1914,-0.1684 0.5144,-0.3576 0.7176,-0.4204 0.2033,-0.063 0.4096,-0.1731 0.4587,-0.2452 0.1538,-0.2266 3.3856,-2.1127 3.3884,-1.9774 0,0.071 0.062,0.04 0.1337,-0.068 0.2227,-0.3345 5.2018,-3.0982 5.5002,-3.0529 0.063,0.01 0.1644,-0.062 0.2249,-0.1586 0.2258,-0.3617 11.0643,-5.604 11.0698,-5.3545 0,0.067 0.062,0.036 0.1337,-0.069 0.1207,-0.1762 5.8924,-2.7136 6.3458,-2.79 0.1101,-0.019 0.3605,-0.1164 0.5565,-0.2175 0.522,-0.2693 3.2232,-1.3184 3.5028,-1.3601 0.1316,-0.02 0.3287,-0.091 0.4379,-0.1588 0.1879,-0.1164 3.0525,-1.1882 3.1441,-1.1764 0.024,0 0.3416,-0.118 0.7065,-0.2688 0.3649,-0.1509 0.8461,-0.3079 1.0692,-0.3489 0.2232,-0.041 0.4258,-0.091 0.4503,-0.1099 0.024,-0.019 0.1247,-0.055 0.2227,-0.079 0.098,-0.024 0.2184,-0.064 0.2673,-0.088 0.049,-0.024 0.1693,-0.064 0.2673,-0.088 0.098,-0.024 0.2183,-0.064 0.2673,-0.088 0.049,-0.024 0.1493,-0.061 0.2227,-0.081 0.074,-0.02 0.2677,-0.096 0.4317,-0.1679 0.1638,-0.072 0.4444,-0.158 0.6236,-0.1917 0.1792,-0.034 0.3459,-0.077 0.3703,-0.097 0.025,-0.02 0.1047,-0.052 0.1782,-0.072 0.073,-0.02 0.3651,-0.1315 0.648,-0.2473 0.2829,-0.1156 0.6437,-0.2357 0.8019,-0.2667 0.1581,-0.031 0.488,-0.1378 0.733,-0.2372 0.3645,-0.148 1.4011,-0.429 1.782,-0.4832 0.049,-0.01 0.1693,-0.061 0.2673,-0.1201 0.2206,-0.1332 3.2541,-1.0083 3.7421,-1.0796 0.196,-0.029 0.4366,-0.1007 0.5346,-0.1601 0.5774,-0.3509 12.2449,-3.0525 15.5054,-3.5904 0.2928,-0.048 2.136,-0.3596 4.0962,-0.6919 1.9602,-0.332 4.0852,-0.6584 4.7222,-0.7253 1.6395,-0.1719 1.7776,-0.1885 2.673,-0.3188 0.441,-0.064 1.1627,-0.1487 1.6037,-0.1878 0.4411,-0.039 1.4835,-0.1499 2.3166,-0.2458 0.833,-0.096 1.6349,-0.1763 1.7819,-0.178 0.147,0 0.7084,-0.045 1.2474,-0.097 4.4038,-0.4207 7.0753,-0.572 10.6997,-0.6062 2.5653,-0.024 3.5636,0.026 3.7895,0.1893 z"
     id="path2" />
  <text
     xml:space="preserve"
     style="font-style:normal;font-variant:normal;font-weight:normal;font-stretch:normal;font-size:9.8778px;font-family:'Arial Unicode MS';-inkscape-font-specification:'Arial Unicode MS, Normal';font-variant-ligatures:normal;font-variant-caps:normal;font-variant-numeric:normal;font-variant-east-asian:normal;text-align:start;writing-mode:lr-tb;direction:ltr;text-anchor:start;fill:#000000;fill-opacity:1;stroke:none;stroke-width:40.2891;stroke-miterlimit:4.1;stroke-dasharray:none;stroke-opacity:1"
     x="1356.7596"
     y="-705.75354"
     id="text4"><tspan
       sodipodi:role="line"
       id="tspan1"
       x="1356.7596"
       y="-705.75354">C1.03</tspan></text>
</svg>
