<?xml version="1.0" encoding="UTF-8" standalone="no"?>
<svg
   width="349.999mm"
   height="349.477mm"
   viewBox="2364.000488 -1016.738281 349.999023 349.476563"
   version="1.1"
   id="svg4"
   sodipodi:docname="C3.12-MCI.svg"
   inkscape:version="1.4 (86a8ad7, 2024-10-11)"
   inkscape:export-filename="C3.12-MCI.jpg"
   inkscape:export-xdpi="96"
   inkscape:export-ydpi="96"
   xmlns:inkscape="http://www.inkscape.org/namespaces/inkscape"
   xmlns:sodipodi="http://sodipodi.sourceforge.net/DTD/sodipodi-0.dtd"
   xmlns="http://www.w3.org/2000/svg"
   xmlns:svg="http://www.w3.org/2000/svg">
  <defs
     id="defs4" />
  <sodipodi:namedview
     id="namedview4"
     pagecolor="#ffffff"
     bordercolor="#000000"
     borderopacity="0.25"
     inkscape:showpageshadow="2"
     inkscape:pageopacity="0.0"
     inkscape:pagecheckerboard="0"
     inkscape:deskcolor="#d1d1d1"
     inkscape:document-units="mm"
     inkscape:zoom="0.41866729"
     inkscape:cx="661.62322"
     inkscape:cy="660.42895"
     inkscape:window-width="1366"
     inkscape:window-height="705"
     inkscape:window-x="-8"
     inkscape:window-y="-8"
     inkscape:window-maximized="1"
     inkscape:current-layer="svg4" />
  <path
     transform="matrix(1,0,0,-1,1698.27002,381.491577)"
     style="stroke:#0000ff;stroke-width:0.05mm;fill:none"
     d="M665.754639,1048.782837L665.754639,1048.782837C665.75,1048.84668,677.333984,1048.71167,691.476318,1048.766846L717.189819,1048.86731L717.223938,1052.833374M665.754639,1048.782837C665.75,1048.84668,665.74292,1060.449097,665.738464,1074.565796L665.730347,1100.232666L669.293579,1100.263184C672.651245,1100.292114,672.95752,1100.207764,674.604004,1098.801025C676.554626,1097.134277,677.649658,1094.973145,677.272583,1093.534058C676.855225,1091.940796,678.759644,1090.185303,680.930725,1090.161865C683.501099,1090.134277,684.642944,1090.595703,685.239929,1091.903687C685.858704,1093.259277,685.935181,1129.972168,685.32251,1131.531616C684.867493,1132.689819,683.482422,1133.243408,681.10199,1133.21875C678.060669,1133.187134,677.167358,1132.293457,677.390137,1129.504883C677.506042,1128.054932,676.644592,1126.588867,674.573975,1124.712158C672.845764,1123.145752,672.645203,1123.085449,669.266113,1123.114746L665.754272,1123.145508L665.754272,1223.54834L665.754272,1323.951172L669.266113,1323.981812C672.645203,1324.011108,672.845825,1323.950806,674.573975,1322.384399C676.644653,1320.50769,677.506042,1319.041626,677.390137,1317.591675C677.167358,1314.803223,678.060669,1313.909424,681.10199,1313.877808C683.482483,1313.853149,684.867493,1314.40686,685.322266,1315.564941C685.837646,1316.877441,685.837646,1353.937622,685.322266,1355.250122C684.858032,1356.432495,683.477356,1356.962036,680.930725,1356.934692C678.759644,1356.911255,676.855225,1355.155762,677.272583,1353.562622C677.649597,1352.123535,676.554626,1349.962402,674.604004,1348.295654C672.95752,1346.888794,672.651306,1346.804565,669.293579,1346.833374L665.730347,1346.864014L665.730347,1372.546997L665.730347,1398.229858L691.460083,1398.229858L717.189697,1398.229858L717.220459,1394.673218C717.24939,1391.321533,717.164917,1391.015869,715.755493,1389.372437C714.085754,1387.425293,711.920654,1386.332275,710.479004,1386.708618C708.882874,1387.125244,707.124146,1385.224365,707.100769,1383.057129C707.073303,1380.515137,707.603882,1379.136963,708.788391,1378.673584C710.103333,1378.15918,747.230835,1378.15918,748.545776,1378.673584C749.706055,1379.127563,750.260681,1380.51001,750.235962,1382.88623C750.204346,1385.919189,749.308838,1386.812988,746.522949,1386.592285C745.059631,1386.476318,743.085205,1387.647949,741.511475,1389.566162C740.273682,1391.074829,740.136841,1391.563477,740.109192,1394.769653L740.043823,1398.22876L937.697693,1398.102783L941.176697,1398.160645L941.345459,1394.756592C941.376221,1391.182373,941.333313,1391.037231,939.745972,1389.345581C937.845947,1387.320435,936.376099,1386.477295,934.944458,1386.591309C932.15094,1386.813721,931.255615,1385.921997,931.223877,1382.88623C931.199219,1380.51001,931.753906,1379.127563,932.914063,1378.67334C934.477112,1378.061523,971.375854,1378.137329,972.552002,1378.754761C973.984863,1379.507202,974.211792,1380.038574,974.219727,1382.660522C974.228149,1385.477295,973.119141,1386.825073,970.930054,1386.658569C969.121582,1386.521118,967.168457,1387.566528,965.532043,1389.548096C964.326294,1391.008179,964.211426,1391.464844,964.239502,1394.690186L964.270264,1398.229858L990,1398.229858L1015.729614,1398.229858L1015.729614,1372.535034L1015.729614,1346.840088L1012.335083,1346.821533C1008.983398,1346.79248,1008.299927,1346.884644,1006.656372,1348.294067C1004.709229,1349.963867,1003.616211,1352.128906,1003.992676,1353.570557C1004.409302,1355.166748,1002.508301,1356.925415,1000.341125,1356.948853C997.775391,1356.976807,996.635742,1356.51416,996.039795,1355.203979C995.422119,1353.845947,995.345703,1317.066162,995.957397,1315.503784C996.411499,1314.343628,997.794067,1313.78894,1000.170227,1313.813599C1003.206116,1313.845337,1004.097717,1314.740723,1003.875183,1317.53418C1003.759521,1318.986816,1004.619507,1320.455566,1006.686279,1322.335693C1008.411926,1323.905273,1008.759521,1324.011353,1012.137207,1323.981812L1015.704712,1323.951172L1015.704712,1223.54834L1015.704712,1123.145508L1011.63501,1123.145874C1008.283325,1123.116943,1007.977783,1123.201416,1006.334229,1124.61084C1004.387085,1126.280518,1003.294128,1128.445557,1003.670471,1129.887207C1004.087219,1131.483398,1002.186218,1133.242188,1000.018921,1133.265625C997.453247,1133.293457,996.313599,1132.830811,995.717651,1131.520752C995.099976,1130.162598,995.02356,1093.382813,995.635254,1091.820557C996.089355,1090.6604,997.471924,1090.105713,999.848022,1090.130371C1002.883911,1090.162109,1003.775513,1091.057373,1003.553101,1093.85083C1003.437378,1095.303589,1004.297424,1096.772217,1006.364075,1098.652344C1008.089722,1100.221924,1008.78772,1100.292847,1012.165405,1100.263306L1015.728577,1100.232666L1015.728577,1074.549683L1015.728577,1048.866699L989.998962,1048.866699L964.269165,1048.866699L964.238464,1052.423462C964.209534,1055.775146,964.293945,1056.080688,965.703369,1057.724243C967.373169,1059.671387,969.538147,1060.764404,970.979858,1060.387939C972.57605,1059.971313,974.334717,1061.872314,974.358154,1064.039551C974.386108,1066.605225,973.923462,1067.744873,972.613281,1068.34082C971.255188,1068.958496,934.475464,1069.034912,932.913086,1068.423218C931.75293,1067.969116,931.198242,1066.586548,931.2229,1064.210449C931.254639,1061.174561,932.149963,1060.282959,934.943481,1060.505371C936.396179,1060.621094,937.864868,1059.761108,939.744995,1057.694336C941.314575,1055.96875,941.374756,1055.769531,941.345215,1052.391846L941.314453,1048.882202L840.729919,1048.882202L740.144348,1048.882202L740.113708,1052.391846C740.084778,1055.74353,740.201965,1056.181152,741.611389,1057.824707C743.281189,1059.771851,745.446167,1060.864868,746.887878,1060.488403C748.48407,1060.071777,750.242737,1061.972778,750.266174,1064.140015C750.294128,1066.705688,749.831482,1067.845337,748.521301,1068.441284C747.163208,1069.05896,710.383484,1069.135376,708.821106,1068.523682C707.66095,1068.06958,707.106262,1066.687012,707.13092,1064.310913C707.162659,1061.275024,708.057983,1060.383423,710.851501,1060.605835C712.304199,1060.721558,713.772888,1059.861572,715.653015,1057.7948C717.222595,1056.069214,717.253479,1056.21106,717.223938,1052.833374"
     id="path1" />
  <path
     transform="matrix(1,0,0,-1,0,0)"
     style="stroke:none;fill:#000000;fill-rule:evenodd"
     d="M2548.77832,687.160278L2548.795898,690.598267C2548.841309,694.36792,2548.806885,698.136658,2548.691895,701.904968C2548.687012,702.870239,2548.598389,703.833618,2548.426514,704.785645L2548.390625,704.901367L2548.353027,704.987915C2548.300293,705.071899,2548.243408,705.153564,2548.172607,705.225464L2548.070313,705.406921C2547.932861,705.755371,2547.958008,706.141235,2548.136963,706.473206C2548.196289,706.603394,2548.258789,706.732544,2548.323242,706.860779L2548.385498,706.999023C2548.672363,707.69281,2548.91748,708.400696,2549.119141,709.119629L2549.560791,710.73645C2550.45752,713.593384,2551.950684,716.259644,2553.957031,718.584351C2555.559326,720.513062,2557.501709,722.178101,2559.702393,723.509277C2561.009277,724.294067,2562.447754,724.873047,2563.959473,725.22229L2564.231201,725.321777C2564.629883,725.465942,2564.97876,725.707153,2565.24585,726.016602C2565.30957,726.118042,2565.368896,726.221741,2565.42041,726.328857L2565.535156,726.460876C2565.742188,726.61731,2566.003418,726.699158,2566.27002,726.679199C2566.450684,726.672424,2566.630127,726.645874,2566.805176,726.603027L2567.015625,726.573181C2567.836426,726.574341,2568.654297,726.667175,2569.451172,726.849976C2572.206543,727.422302,2574.929199,728.123169,2577.608398,728.949829C2582.444824,730.366455,2587.189453,732.038574,2591.818848,733.957886C2610.649414,741.895813,2627.159912,753.876648,2639.979736,768.905701C2654.594971,786.274902,2663.687256,807.069946,2666.23584,828.955811C2670.811523,867.389282,2654.849121,905.4729,2623.464355,931.00293C2612.083984,940.247681,2599.012207,947.539124,2584.863281,952.534668C2580.6604,954.020447,2576.381348,955.315674,2572.041992,956.415344C2570.604248,956.800415,2569.136719,957.083252,2567.652344,957.261414C2567.299316,957.30188,2566.940918,957.280396,2566.596436,957.198792L2566.352783,957.181885C2565.937012,957.14801,2565.531982,957.318359,2565.287109,957.631348L2565.231689,957.701782C2564.964355,957.953857,2564.654785,958.164001,2564.313965,958.322998C2563.66333,958.660767,2562.983154,958.947632,2562.280762,959.180603L2561.974609,959.30481C2560.498291,959.974304,2559.107666,960.7948,2557.828857,961.750854C2556.205078,962.906677,2554.722412,964.222656,2553.406494,965.675476C2552.562744,966.66333,2551.860352,967.747986,2551.316895,968.902405C2550.481689,970.539429,2549.787598,972.234863,2549.240967,973.973083C2549.022461,974.594543,2548.900391,975.241821,2548.878662,975.895081L2548.843506,976.088501C2548.743652,976.542053,2548.499512,976.957886,2548.14209,977.281616L2548.034668,977.440674C2547.920654,977.684387,2547.922852,977.961243,2548.040039,978.203613C2548.113037,978.388916,2548.20166,978.568542,2548.303711,978.741699L2548.345459,978.828247C2548.523682,979.490295,2548.620361,980.168762,2548.633789,980.850891C2548.769043,983.429565,2548.826416,986.011169,2548.805908,988.592712C2548.812744,991.765137,2548.802734,994.925781,2548.775391,998.097717L2548.637207,1016.389038C2544.863281,1016.456299,2541.105957,1016.504883,2537.331055,1016.5354C2534.88623,1016.579224,2532.44043,1016.53772,2529.999023,1016.410889C2529.818359,1016.411011,2529.639404,1016.38031,2529.470703,1016.320923C2529.389893,1015.915527,2529.349854,1015.50415,2529.351074,1015.091919C2529.180176,1009.902039,2529.104492,1004.707947,2529.123779,999.515686C2529.092285,994.302124,2529.130859,989.082642,2529.239258,983.870117C2529.250732,982.403137,2529.338379,980.937561,2529.501465,979.478394C2529.511475,979.219055,2529.586426,978.965454,2529.719971,978.737305L2529.865723,978.582336C2530.075684,978.310181,2530.122559,977.958374,2529.991211,977.646851C2529.878906,977.381775,2529.761475,977.118958,2529.638672,976.85791L2529.571289,976.698853C2529.311768,976.049255,2529.085938,975.388611,2528.894531,974.719116L2528.452148,973.10022C2527.481934,970.02124,2525.824707,967.164795,2523.587402,964.715271C2521.949219,962.845642,2519.972412,961.253479,2517.745361,960.009766C2516.594727,959.380981,2515.350586,958.910889,2514.053223,958.614441L2513.781738,958.514893C2513.383301,958.369751,2513.033691,958.1297,2512.766602,957.820313C2512.704346,957.71814,2512.64624,957.613892,2512.592041,957.507874L2512.477051,957.375793C2512.198486,957.171875,2511.833496,957.099365,2511.489258,957.180054L2511.207275,957.233643C2510.663574,957.289001,2510.114258,957.264282,2509.578613,957.160583C2507.337646,956.770325,2505.123779,956.255981,2502.949463,955.620178C2497.891602,954.217773,2492.922363,952.556885,2488.063477,950.644897C2460.808105,939.745911,2438.518799,920.386292,2425.041748,895.906616C2409.471191,867.727051,2406.720459,834.957153,2417.401611,804.890991C2429.843262,769.640259,2459.479004,741.855225,2497.409668,729.879395C2500.760254,728.770203,2504.16748,727.813416,2507.618896,727.012451C2508.541016,726.792358,2509.480469,726.640137,2510.428711,726.557617C2510.73584,726.527954,2511.046875,726.563232,2511.335449,726.665466L2511.541504,726.691956C2511.987305,726.709106,2512.412598,726.515503,2512.663086,726.173889L2512.753418,726.094116C2513.430176,725.618286,2514.174805,725.231201,2514.966064,724.943604L2515.732178,724.660522C2517.060303,724.105591,2518.314453,723.410156,2519.469727,722.588501C2521.36792,721.308228,2523.092773,719.821411,2524.606934,718.159912C2525.450684,717.172485,2526.1521,716.088013,2526.695801,714.934326C2527.530762,713.297241,2528.224854,711.601746,2528.771484,709.863647C2528.98999,709.242126,2529.112549,708.594849,2529.134277,707.941589L2529.168945,707.748169C2529.267334,707.294189,2529.512451,706.878479,2529.870605,706.555054L2529.977783,706.395996L2530.041504,706.229858L2530.062012,706.05127C2530.000732,705.684082,2529.866943,705.330872,2529.66748,705.008423L2529.62793,704.896362C2529.463623,704.142761,2529.372559,703.377075,2529.355469,702.608398C2529.243652,700.154907,2529.193848,697.699707,2529.206543,695.244019C2529.199463,692.074951,2529.209717,688.908081,2529.237305,685.738953L2529.375244,667.447632L2548.637207,667.447632L2548.77832,687.160278zM2536.219482,742.450928C2509.531738,743.057312,2484.046875,752.849731,2464.746094,769.914307C2449.521484,783.320313,2438.878418,800.56189,2434.133545,819.506165C2429.238037,839.162415,2430.879395,859.728271,2438.842529,878.505859C2451.165039,907.36145,2477.291016,929.272034,2509.534912,937.792053C2530.531738,943.289307,2552.833984,942.782349,2573.513672,936.337708C2607.023926,925.809937,2632.817627,900.739868,2642.533691,869.254028C2648.968262,848.225647,2647.780273,825.826599,2639.151855,805.482056C2626.829102,776.626343,2600.703125,754.715698,2568.458984,746.195923C2557.978516,743.448792,2547.108643,742.186157,2536.219482,742.450928z"
     id="path2" />
  <text
     xml:space="preserve"
     style="font-style:normal;font-variant:normal;font-weight:normal;font-stretch:normal;font-size:9.8778px;font-family:'Arial Unicode MS';-inkscape-font-specification:'Arial Unicode MS, Normal';font-variant-ligatures:normal;font-variant-caps:normal;font-variant-numeric:normal;font-variant-east-asian:normal;text-align:start;writing-mode:lr-tb;direction:ltr;text-anchor:start;fill:#000000;fill-opacity:1;stroke:none;stroke-width:40.2891;stroke-miterlimit:4.1;stroke-dasharray:none;stroke-opacity:1"
     x="2661.1816"
     y="-694.19116"
     id="text4"><tspan
       sodipodi:role="line"
       id="tspan1">C3.12</tspan></text>
</svg>
