<?xml version="1.0" encoding="UTF-8" standalone="no"?>
<svg
   width="350.000mm"
   height="349.486mm"
   viewBox="2373.129883 -615.821655 349.999512 349.486115"
   version="1.1"
   id="svg4"
   sodipodi:docname="C3.16-MCI.svg"
   inkscape:export-filename="C3.16-MCI.jpg"
   inkscape:export-xdpi="96"
   inkscape:export-ydpi="96"
   inkscape:version="1.4 (86a8ad7, 2024-10-11)"
   xmlns:inkscape="http://www.inkscape.org/namespaces/inkscape"
   xmlns:sodipodi="http://sodipodi.sourceforge.net/DTD/sodipodi-0.dtd"
   xmlns="http://www.w3.org/2000/svg"
   xmlns:svg="http://www.w3.org/2000/svg">
  <defs
     id="defs4" />
  <sodipodi:namedview
     id="namedview4"
     pagecolor="#ffffff"
     bordercolor="#000000"
     borderopacity="0.25"
     inkscape:showpageshadow="2"
     inkscape:pageopacity="0.0"
     inkscape:pagecheckerboard="0"
     inkscape:deskcolor="#d1d1d1"
     inkscape:document-units="mm"
     inkscape:zoom="0.4186565"
     inkscape:cx="661.64027"
     inkscape:cy="660.44597"
     inkscape:window-width="1366"
     inkscape:window-height="705"
     inkscape:window-x="-8"
     inkscape:window-y="-8"
     inkscape:window-maximized="1"
     inkscape:current-layer="svg4" />
  <path
     transform="matrix(1,0,0,-1,1707.399658,782.408203)"
     style="stroke:#0000ff;stroke-width:0.05mm;fill:none"
     d="M665.754639,1048.782837L665.754639,1048.782837C665.75,1048.84668,677.333984,1048.71167,691.476318,1048.766846L717.189819,1048.86731L717.223938,1052.833374M665.754639,1048.782837C665.75,1048.84668,665.74292,1060.449097,665.738464,1074.565796L665.730347,1100.232666L669.293579,1100.263184C672.651245,1100.292114,672.95752,1100.207764,674.604004,1098.801025C676.554626,1097.134277,677.649658,1094.973145,677.272583,1093.534058C676.855225,1091.940796,678.759644,1090.185303,680.930725,1090.161865C683.501099,1090.134277,684.642944,1090.595703,685.239929,1091.903687C685.858704,1093.259277,685.935181,1129.972168,685.32251,1131.531616C684.867493,1132.689819,683.482422,1133.243408,681.10199,1133.21875C678.060669,1133.187134,677.167358,1132.293457,677.390137,1129.504883C677.506042,1128.054932,676.644592,1126.588867,674.573975,1124.712158C672.845764,1123.145752,672.645203,1123.085449,669.266113,1123.114746L665.754272,1123.145508L665.754272,1223.54834L665.754272,1323.951172L669.266113,1323.981812C672.645203,1324.011108,672.845825,1323.950806,674.573975,1322.384399C676.644653,1320.50769,677.506042,1319.041626,677.390137,1317.591675C677.167358,1314.803223,678.060669,1313.909424,681.10199,1313.877808C683.482483,1313.853149,684.867493,1314.40686,685.322266,1315.564941C685.837646,1316.877441,685.837646,1353.937622,685.322266,1355.250122C684.858032,1356.432495,683.477356,1356.962036,680.930725,1356.934692C678.759644,1356.911255,676.855225,1355.155762,677.272583,1353.562622C677.649597,1352.123535,676.554626,1349.962402,674.604004,1348.295654C672.95752,1346.888794,672.651306,1346.804565,669.293579,1346.833374L665.730347,1346.864014L665.730347,1372.546997L665.730347,1398.229858L691.460083,1398.229858L717.189697,1398.229858L717.220459,1394.673218C717.24939,1391.321533,717.164917,1391.015869,715.755493,1389.372437C714.085754,1387.425293,711.920654,1386.332275,710.479004,1386.708618C708.882874,1387.125244,707.124146,1385.224365,707.100769,1383.057129C707.073303,1380.515137,707.603882,1379.136963,708.788391,1378.673584C710.103333,1378.15918,747.230835,1378.15918,748.545776,1378.673584C749.706055,1379.127563,750.260681,1380.51001,750.235962,1382.88623C750.204346,1385.919189,749.308838,1386.812988,746.522949,1386.592285C745.059631,1386.476318,743.085205,1387.647949,741.511475,1389.566162C740.273682,1391.074829,740.136841,1391.563477,740.109192,1394.769653L740.043823,1398.22876L937.697693,1398.102783L941.176697,1398.160645L941.345459,1394.756592C941.376221,1391.182373,941.333313,1391.037231,939.745972,1389.345581C937.845947,1387.320435,936.376099,1386.477295,934.944458,1386.591309C932.15094,1386.813721,931.255615,1385.921997,931.223877,1382.88623C931.199219,1380.51001,931.753906,1379.127563,932.914063,1378.67334C934.477112,1378.061523,971.375854,1378.137329,972.552002,1378.754761C973.984863,1379.507202,974.211792,1380.038574,974.219727,1382.660522C974.228149,1385.477295,973.119141,1386.825073,970.930054,1386.658569C969.121582,1386.521118,967.168457,1387.566528,965.532043,1389.548096C964.326294,1391.008179,964.211426,1391.464844,964.239502,1394.690186L964.270264,1398.229858L990,1398.229858L1015.729614,1398.229858L1015.729614,1372.535034L1015.729614,1346.840088L1012.335083,1346.821533C1008.983398,1346.79248,1008.299927,1346.884644,1006.656372,1348.294067C1004.709229,1349.963867,1003.616211,1352.128906,1003.992676,1353.570557C1004.409302,1355.166748,1002.508301,1356.925415,1000.341125,1356.948853C997.775391,1356.976807,996.635742,1356.51416,996.039795,1355.203979C995.422119,1353.845947,995.345703,1317.066162,995.957397,1315.503784C996.411499,1314.343628,997.794067,1313.78894,1000.170227,1313.813599C1003.206116,1313.845337,1004.097717,1314.740723,1003.875183,1317.53418C1003.759521,1318.986816,1004.619507,1320.455566,1006.686279,1322.335693C1008.411926,1323.905273,1008.759521,1324.011353,1012.137207,1323.981812L1015.704712,1323.951172L1015.704712,1223.54834L1015.704712,1123.145508L1011.63501,1123.145874C1008.283325,1123.116943,1007.977783,1123.201416,1006.334229,1124.61084C1004.387085,1126.280518,1003.294128,1128.445557,1003.670471,1129.887207C1004.087219,1131.483398,1002.186218,1133.242188,1000.018921,1133.265625C997.453247,1133.293457,996.313599,1132.830811,995.717651,1131.520752C995.099976,1130.162598,995.02356,1093.382813,995.635254,1091.820557C996.089355,1090.6604,997.471924,1090.105713,999.848022,1090.130371C1002.883911,1090.162109,1003.775513,1091.057373,1003.553101,1093.85083C1003.437378,1095.303589,1004.297424,1096.772217,1006.364075,1098.652344C1008.089722,1100.221924,1008.78772,1100.292847,1012.165405,1100.263306L1015.728577,1100.232666L1015.728577,1074.549683L1015.728577,1048.866699L989.998962,1048.866699L964.269165,1048.866699L964.238464,1052.423462C964.209534,1055.775146,964.293945,1056.080688,965.703369,1057.724243C967.373169,1059.671387,969.538147,1060.764404,970.979858,1060.387939C972.57605,1059.971313,974.334717,1061.872314,974.358154,1064.039551C974.386108,1066.605225,973.923462,1067.744873,972.613281,1068.34082C971.255188,1068.958496,934.475464,1069.034912,932.913086,1068.423218C931.75293,1067.969116,931.198242,1066.586548,931.2229,1064.210449C931.254639,1061.174561,932.149963,1060.282959,934.943481,1060.505371C936.396179,1060.621094,937.864868,1059.761108,939.744995,1057.694336C941.314575,1055.96875,941.374756,1055.769531,941.345215,1052.391846L941.314453,1048.882202L840.729919,1048.882202L740.144348,1048.882202L740.113708,1052.391846C740.084778,1055.74353,740.201965,1056.181152,741.611389,1057.824707C743.281189,1059.771851,745.446167,1060.864868,746.887878,1060.488403C748.48407,1060.071777,750.242737,1061.972778,750.266174,1064.140015C750.294128,1066.705688,749.831482,1067.845337,748.521301,1068.441284C747.163208,1069.05896,710.383484,1069.135376,708.821106,1068.523682C707.66095,1068.06958,707.106262,1066.687012,707.13092,1064.310913C707.162659,1061.275024,708.057983,1060.383423,710.851501,1060.605835C712.304199,1060.721558,713.772888,1059.861572,715.653015,1057.7948C717.222595,1056.069214,717.253479,1056.21106,717.223938,1052.833374"
     id="path1" />
  <path
     transform="matrix(1,0,0,-1,0,0)"
     style="stroke:none;fill:#000000;fill-rule:evenodd"
     d="M2549.758301,266.34552L2551.308594,266.374695C2553.049072,266.379211,2554.787109,266.503418,2556.510742,266.746765C2556.730713,266.760193,2556.943359,266.833008,2557.125,266.958496C2557.260498,267.32251,2557.331055,267.707764,2557.333496,268.096436C2557.533691,270.807251,2557.641602,273.524109,2557.657471,276.242188C2557.828613,284.922302,2557.785156,293.604431,2557.526855,302.281982C2557.511475,303.50946,2557.412842,304.734497,2557.231445,305.948486C2557.203857,306.07135,2557.139648,306.182861,2557.046143,306.266724L2556.959961,306.423035C2556.803223,306.837891,2556.833008,307.300415,2557.041016,307.691772L2557.092529,307.830505C2557.518066,309.128601,2557.890137,310.443909,2558.208008,311.772766L2558.536621,312.94928C2560.268799,318.453003,2564.01416,323.089294,2569.016113,325.921387C2569.613525,326.226379,2570.634033,326.742065,2571.233643,327.042114L2571.779785,327.326843C2572.534424,327.717163,2573.263672,328.154846,2573.963623,328.637024L2574.152588,328.714355C2574.494873,328.838928,2574.869385,328.842285,2575.213379,328.722656L2575.433105,328.71637C2576.493408,328.824951,2577.541992,329.025574,2578.567871,329.316406C2585.483154,331.166199,2592.249512,333.538574,2598.809326,336.413391C2612.690674,342.754578,2625.341064,351.525391,2636.171387,362.317139C2642.752686,369.069702,2648.54126,376.559387,2653.423584,384.639648C2678.320557,425.519043,2677.731445,477.130188,2651.907715,517.423889C2641.803467,533.22052,2628.218506,546.465881,2612.205811,556.133484C2602.26001,562.201782,2591.502441,566.81012,2580.260742,569.81842C2573.979004,571.545288,2567.570068,572.763916,2561.094971,573.462708C2545.891357,574.993164,2530.537598,573.739624,2515.77832,569.763C2473.957031,558.45874,2441.130615,525.863464,2429.358643,483.951538C2426.463623,473.739929,2424.86084,463.201965,2424.587402,452.586914C2424.226318,434.21405,2427.897461,415.987183,2435.3396,399.204102C2441.901123,384.241394,2451.342285,370.732605,2463.118652,359.456116C2468.842041,354.013672,2475.095459,349.164063,2481.783936,344.980591C2487.596924,341.267578,2493.699707,338.034851,2500.032471,335.31427C2505.809326,332.941833,2511.729736,330.938477,2517.757568,329.316406C2518.78125,329.017761,2519.831055,328.816895,2520.89209,328.71637C2521.12915,328.733215,2521.364746,328.76532,2521.597412,328.813599L2521.784912,328.803955C2522.199951,328.738342,2522.587891,328.555237,2522.9021,328.274658L2523.041504,328.183411C2524.078857,327.5578,2525.147461,326.986145,2526.243408,326.470947L2527.309326,325.921387C2532.887939,322.760132,2536.876465,317.37384,2538.289551,311.092773L2538.46582,310.423096C2538.712158,309.389893,2539.025146,308.373779,2539.402832,307.38147L2539.449219,307.17804C2539.527344,306.77771,2539.407715,306.36322,2539.130127,306.065613L2539.09375,305.948486C2538.93457,304.915344,2538.843994,303.872803,2538.82251,302.827576C2538.552734,294.500244,2538.491943,286.16626,2538.640137,277.836182C2538.652344,274.704529,2538.759521,271.573975,2538.961182,268.448914C2538.978516,267.968018,2539.045898,267.490234,2539.162842,267.023499L2539.200439,266.958496L2539.250244,266.919983C2539.541992,266.787781,2539.854736,266.708252,2540.173828,266.686035C2542.297119,266.452515,2544.431396,266.338806,2546.567139,266.34552C2547.631104,266.332214,2548.694092,266.332214,2549.758301,266.34552zM2544.572998,346.315063C2504.748535,347.265198,2468.955078,370.985657,2452.376709,407.413879C2445.193604,423.30072,2442.134521,440.760498,2443.486084,458.159668C2445.18335,480.355835,2453.980713,501.403076,2468.562256,518.152344C2489.009521,541.720947,2518.855713,554.874329,2549.945557,554.018494C2589.77002,553.068298,2625.563721,529.347839,2642.142334,492.919678C2649.325439,477.032837,2652.384277,459.572998,2651.032471,442.173889C2649.335693,419.977722,2640.53833,398.93042,2625.956787,382.181152C2605.509521,358.612427,2575.663086,345.458984,2544.572998,346.315063z"
     id="path2" />
  <text
     xml:space="preserve"
     style="font-style:normal;font-variant:normal;font-weight:normal;font-stretch:normal;font-size:9.8778px;font-family:'Arial Unicode MS';-inkscape-font-specification:'Arial Unicode MS, Normal';font-variant-ligatures:normal;font-variant-caps:normal;font-variant-numeric:normal;font-variant-east-asian:normal;text-align:start;writing-mode:lr-tb;direction:ltr;text-anchor:start;fill:#000000;fill-opacity:1;stroke:none;stroke-width:40.2891;stroke-miterlimit:4.1;stroke-dasharray:none;stroke-opacity:1"
     x="2670.3108"
     y="-293.27429"
     id="text4"><tspan
       sodipodi:role="line"
       id="tspan1">C3.16</tspan></text>
</svg>
