<?xml version="1.0" encoding="UTF-8" standalone="no"?>
<svg
   width="349.999mm"
   height="349.477mm"
   viewBox="2366.000488 -1390.738281 349.999023 349.476563"
   version="1.1"
   id="svg9"
   sodipodi:docname="C3.15-CDS.svg"
   inkscape:export-filename="C3.15-CDS.jpg"
   inkscape:export-xdpi="96"
   inkscape:export-ydpi="96"
   inkscape:version="1.4 (86a8ad7, 2024-10-11)"
   xmlns:inkscape="http://www.inkscape.org/namespaces/inkscape"
   xmlns:sodipodi="http://sodipodi.sourceforge.net/DTD/sodipodi-0.dtd"
   xmlns="http://www.w3.org/2000/svg"
   xmlns:svg="http://www.w3.org/2000/svg">
  <defs
     id="defs9" />
  <sodipodi:namedview
     id="namedview9"
     pagecolor="#ffffff"
     bordercolor="#000000"
     borderopacity="0.25"
     inkscape:showpageshadow="2"
     inkscape:pageopacity="0.0"
     inkscape:pagecheckerboard="0"
     inkscape:deskcolor="#d1d1d1"
     inkscape:document-units="mm"
     inkscape:zoom="0.41866729"
     inkscape:cx="661.62322"
     inkscape:cy="660.42895"
     inkscape:window-width="1366"
     inkscape:window-height="705"
     inkscape:window-x="-8"
     inkscape:window-y="-8"
     inkscape:window-maximized="1"
     inkscape:current-layer="svg9" />
  <path
     transform="matrix(1,0,0,-1,1700.27002,7.491577)"
     style="stroke:#0000ff;stroke-width:0.05mm;fill:none"
     d="M665.754639,1048.782837L665.754639,1048.782837C665.75,1048.84668,677.333984,1048.71167,691.476318,1048.766846L717.189819,1048.86731L717.223938,1052.833374M665.754639,1048.782837C665.75,1048.84668,665.74292,1060.449097,665.738464,1074.565796L665.730347,1100.232666L669.293579,1100.263184C672.651245,1100.292114,672.95752,1100.207764,674.604004,1098.801025C676.554626,1097.134277,677.649658,1094.973145,677.272583,1093.534058C676.855225,1091.940796,678.759644,1090.185303,680.930725,1090.161865C683.501099,1090.134277,684.642944,1090.595703,685.239929,1091.903687C685.858704,1093.259277,685.935181,1129.972168,685.32251,1131.531616C684.867493,1132.689819,683.482422,1133.243408,681.10199,1133.21875C678.060669,1133.187134,677.167358,1132.293457,677.390137,1129.504883C677.506042,1128.054932,676.644592,1126.588867,674.573975,1124.712158C672.845764,1123.145752,672.645203,1123.085449,669.266113,1123.114746L665.754272,1123.145508L665.754272,1223.54834L665.754272,1323.951172L669.266113,1323.981812C672.645203,1324.011108,672.845825,1323.950806,674.573975,1322.384399C676.644653,1320.50769,677.506042,1319.041626,677.390137,1317.591675C677.167358,1314.803223,678.060669,1313.909424,681.10199,1313.877808C683.482483,1313.853149,684.867493,1314.40686,685.322266,1315.564941C685.837646,1316.877441,685.837646,1353.937622,685.322266,1355.250122C684.858032,1356.432495,683.477356,1356.962036,680.930725,1356.934692C678.759644,1356.911255,676.855225,1355.155762,677.272583,1353.562622C677.649597,1352.123535,676.554626,1349.962402,674.604004,1348.295654C672.95752,1346.888794,672.651306,1346.804565,669.293579,1346.833374L665.730347,1346.864014L665.730347,1372.546997L665.730347,1398.229858L691.460083,1398.229858L717.189697,1398.229858L717.220459,1394.673218C717.24939,1391.321533,717.164917,1391.015869,715.755493,1389.372437C714.085754,1387.425293,711.920654,1386.332275,710.479004,1386.708618C708.882874,1387.125244,707.124146,1385.224365,707.100769,1383.057129C707.073303,1380.515137,707.603882,1379.136963,708.788391,1378.673584C710.103333,1378.15918,747.230835,1378.15918,748.545776,1378.673584C749.706055,1379.127563,750.260681,1380.51001,750.235962,1382.88623C750.204346,1385.919189,749.308838,1386.812988,746.522949,1386.592285C745.059631,1386.476318,743.085205,1387.647949,741.511475,1389.566162C740.273682,1391.074829,740.136841,1391.563477,740.109192,1394.769653L740.043823,1398.22876L937.697693,1398.102783L941.176697,1398.160645L941.345459,1394.756592C941.376221,1391.182373,941.333313,1391.037231,939.745972,1389.345581C937.845947,1387.320435,936.376099,1386.477295,934.944458,1386.591309C932.15094,1386.813721,931.255615,1385.921997,931.223877,1382.88623C931.199219,1380.51001,931.753906,1379.127563,932.914063,1378.67334C934.477112,1378.061523,971.375854,1378.137329,972.552002,1378.754761C973.984863,1379.507202,974.211792,1380.038574,974.219727,1382.660522C974.228149,1385.477295,973.119141,1386.825073,970.930054,1386.658569C969.121582,1386.521118,967.168457,1387.566528,965.532043,1389.548096C964.326294,1391.008179,964.211426,1391.464844,964.239502,1394.690186L964.270264,1398.229858L990,1398.229858L1015.729614,1398.229858L1015.729614,1372.535034L1015.729614,1346.840088L1012.335083,1346.821533C1008.983398,1346.79248,1008.299927,1346.884644,1006.656372,1348.294067C1004.709229,1349.963867,1003.616211,1352.128906,1003.992676,1353.570557C1004.409302,1355.166748,1002.508301,1356.925415,1000.341125,1356.948853C997.775391,1356.976807,996.635742,1356.51416,996.039795,1355.203979C995.422119,1353.845947,995.345703,1317.066162,995.957397,1315.503784C996.411499,1314.343628,997.794067,1313.78894,1000.170227,1313.813599C1003.206116,1313.845337,1004.097717,1314.740723,1003.875183,1317.53418C1003.759521,1318.986816,1004.619507,1320.455566,1006.686279,1322.335693C1008.411926,1323.905273,1008.759521,1324.011353,1012.137207,1323.981812L1015.704712,1323.951172L1015.704712,1223.54834L1015.704712,1123.145508L1011.63501,1123.145874C1008.283325,1123.116943,1007.977783,1123.201416,1006.334229,1124.61084C1004.387085,1126.280518,1003.294128,1128.445557,1003.670471,1129.887207C1004.087219,1131.483398,1002.186218,1133.242188,1000.018921,1133.265625C997.453247,1133.293457,996.313599,1132.830811,995.717651,1131.520752C995.099976,1130.162598,995.02356,1093.382813,995.635254,1091.820557C996.089355,1090.6604,997.471924,1090.105713,999.848022,1090.130371C1002.883911,1090.162109,1003.775513,1091.057373,1003.553101,1093.85083C1003.437378,1095.303589,1004.297424,1096.772217,1006.364075,1098.652344C1008.089722,1100.221924,1008.78772,1100.292847,1012.165405,1100.263306L1015.728577,1100.232666L1015.728577,1074.549683L1015.728577,1048.866699L989.998962,1048.866699L964.269165,1048.866699L964.238464,1052.423462C964.209534,1055.775146,964.293945,1056.080688,965.703369,1057.724243C967.373169,1059.671387,969.538147,1060.764404,970.979858,1060.387939C972.57605,1059.971313,974.334717,1061.872314,974.358154,1064.039551C974.386108,1066.605225,973.923462,1067.744873,972.613281,1068.34082C971.255188,1068.958496,934.475464,1069.034912,932.913086,1068.423218C931.75293,1067.969116,931.198242,1066.586548,931.2229,1064.210449C931.254639,1061.174561,932.149963,1060.282959,934.943481,1060.505371C936.396179,1060.621094,937.864868,1059.761108,939.744995,1057.694336C941.314575,1055.96875,941.374756,1055.769531,941.345215,1052.391846L941.314453,1048.882202L840.729919,1048.882202L740.144348,1048.882202L740.113708,1052.391846C740.084778,1055.74353,740.201965,1056.181152,741.611389,1057.824707C743.281189,1059.771851,745.446167,1060.864868,746.887878,1060.488403C748.48407,1060.071777,750.242737,1061.972778,750.266174,1064.140015C750.294128,1066.705688,749.831482,1067.845337,748.521301,1068.441284C747.163208,1069.05896,710.383484,1069.135376,708.821106,1068.523682C707.66095,1068.06958,707.106262,1066.687012,707.13092,1064.310913C707.162659,1061.275024,708.057983,1060.383423,710.851501,1060.605835C712.304199,1060.721558,713.772888,1059.861572,715.653015,1057.7948C717.222595,1056.069214,717.253479,1056.21106,717.223938,1052.833374"
     id="path1" />
  <path
     transform="matrix(1,0,0,-1,0,0)"
     style="stroke:none;fill:#000000;fill-rule:evenodd"
     d="M2715.909424,1226.124023C2716.027588,1225.371216,2715.982666,1208.224854,2715.9646,1207.41687C2715.493896,1207.338135,2711.735107,1207.258545,2708.343018,1207.103394C2700.249512,1206.733154,2691.533447,1205.640991,2683.249756,1203.958984C2679.55835,1203.209473,2676.362061,1202.772949,2676.146729,1202.989014C2675.53833,1203.599243,2671.706787,1219.358276,2672.036621,1219.894287C2672.409668,1220.50061,2684.587158,1222.952148,2692.242676,1223.962402C2702.98584,1225.379883,2714.927002,1226.435181,2715.909424,1226.124023z"
     id="path2" />
  <path
     transform="matrix(1,0,0,-1,0,0)"
     style="stroke:none;fill:#000000;fill-rule:evenodd"
     d="M2551.488525,1099.638916C2556.289551,1097.915405,2559.106445,1096.66626,2559.106445,1096.26062C2559.106445,1095.906494,2558.179688,1092.603394,2557.046875,1088.920166C2553.136475,1076.204468,2551.025635,1064.412476,2550.115723,1050.199585C2549.817139,1045.537354,2550.137207,1041.744507,2549.891113,1041.420776C2549.30249,1041.311523,2546.920166,1041.402344,2541,1041.402344C2534.346924,1041.402344,2531.828613,1041.404907,2531.162109,1041.414673C2531.219971,1042.214355,2531.401123,1043.446533,2531.645264,1047.969482C2532.563232,1064.978882,2535.078613,1079.48999,2539.746582,1094.703125C2541.879395,1101.653564,2542.451904,1102.899048,2543.359863,1102.562866C2543.640869,1102.45874,2547.298828,1101.143066,2551.488525,1099.638916z"
     id="path3" />
  <path
     transform="matrix(1,0,0,-1,0,0)"
     style="stroke:none;fill:#000000;fill-rule:evenodd"
     d="M2658.334961,1206.668579C2660.362061,1200.82312,2661.008789,1198.402954,2660.641357,1198.038818C2660.360352,1197.760498,2658.54834,1196.935669,2656.614746,1196.205811C2654.680908,1195.476074,2650.516602,1193.720093,2647.360352,1192.303711C2644.204346,1190.887329,2641.351563,1189.832764,2641.020752,1189.960205C2640.291992,1190.241211,2633.175293,1203.981079,2633.175293,1205.107422C2633.175293,1205.649292,2634.492188,1206.5271,2637.2771,1207.841553C2643.312988,1210.690552,2653.42041,1214.747192,2654.542969,1214.77124C2655.388428,1214.789429,2655.893066,1213.71106,2658.334961,1206.668579z"
     id="path4" />
  <path
     transform="matrix(1,0,0,-1,0,0)"
     style="stroke:none;fill:#000000;fill-rule:evenodd"
     d="M2622.346191,1189.64624C2624.692383,1185.91748,2626.612061,1182.458984,2626.612061,1181.960693C2626.612061,1181.348511,2625.282227,1180.14856,2622.512695,1178.261719C2620.258057,1176.725708,2616.500488,1173.96875,2614.162598,1172.135254C2611.239502,1169.842651,2609.657227,1168.891113,2609.09668,1169.088623C2608.11377,1169.435059,2598.04248,1181.344238,2598.026855,1182.178589C2598.004639,1183.373779,2615.61792,1196.425659,2617.253174,1196.425659C2617.807617,1196.425659,2619.486572,1194.190674,2622.346191,1189.64624z"
     id="path5" />
  <path
     transform="matrix(1,0,0,-1,0,0)"
     style="stroke:none;fill:#000000;fill-rule:evenodd"
     d="M2591.797607,1164.762207C2595.037598,1161.515137,2597.547119,1158.617676,2597.547119,1158.123657C2597.547119,1157.641602,2595.833984,1155.413208,2593.740234,1153.171753C2591.64624,1150.93042,2588.544922,1147.348145,2586.848389,1145.211182C2585.151611,1143.074341,2583.481934,1141.325928,2583.138184,1141.325928C2582.010742,1141.325928,2569.419678,1151.187378,2569.419678,1152.070313C2569.419678,1153.744873,2583.833008,1170.52417,2585.271484,1170.52417C2585.69873,1170.52417,2588.635498,1167.931274,2591.797607,1164.762207z"
     id="path6" />
  <path
     transform="matrix(1,0,0,-1,0,0)"
     style="stroke:none;fill:#000000;fill-rule:evenodd"
     d="M2566.928955,1133.177979C2570.746338,1130.768799,2573.935059,1128.456421,2574.015137,1128.039551C2574.094971,1127.622559,2572.979492,1125.226807,2571.536377,1122.715576C2570.093262,1120.204346,2568.193604,1116.715698,2567.314941,1114.962891C2566.436279,1113.210205,2565.44043,1111.669434,2565.101563,1111.538818C2564.189697,1111.187256,2549.261719,1118.248169,2549.261719,1119.031006C2549.261719,1120.652466,2558.53833,1137.558472,2559.427979,1137.558472C2559.736084,1137.558472,2563.111328,1135.58728,2566.928955,1133.177979z"
     id="path7" />
  <text
     xml:space="preserve"
     style="font-style:normal;font-variant:normal;font-weight:normal;font-stretch:normal;font-size:9.87779px;font-family:'Arial Unicode MS';-inkscape-font-specification:'Arial Unicode MS, Normal';font-variant-ligatures:normal;font-variant-caps:normal;font-variant-numeric:normal;font-variant-east-asian:normal;text-align:start;writing-mode:lr-tb;direction:ltr;text-anchor:start;fill:#000000;fill-opacity:1;stroke:none;stroke-width:40.2891;stroke-miterlimit:4.1;stroke-dasharray:none;stroke-opacity:1"
     x="2663.1816"
     y="-1068.1912"
     id="text4"><tspan
       sodipodi:role="line"
       id="tspan1">C3.15</tspan></text>
</svg>
